<svg width="24" height="24" viewBox="0 0 24 24" fill="none" xmlns="http://www.w3.org/2000/svg">
<path d="M22.5262 16.9455C22.4865 16.9125 17.9895 13.7085 16.7752 13.9088C16.1895 14.0122 15.855 14.412 15.1838 15.2115C14.9982 15.4341 14.8084 15.6531 14.6145 15.8685C14.1902 15.7303 13.7764 15.5619 13.3762 15.3645C11.3104 14.3588 9.64124 12.6896 8.6355 10.6237C8.43815 10.2236 8.26972 9.80975 8.1315 9.3855C8.352 9.18375 8.661 8.9235 8.793 8.8125C9.58875 8.145 9.98775 7.80975 10.0912 7.22325C10.3035 6.009 7.0875 1.5135 7.0545 1.473C6.90804 1.26529 6.7173 1.09269 6.49603 0.967663C6.27476 0.842632 6.02849 0.768289 5.775 0.75C4.4715 0.75 0.75 5.577 0.75 6.39075C0.75 6.438 0.81825 11.241 6.741 17.2658C12.759 23.1817 17.562 23.25 17.6092 23.25C18.4223 23.25 23.25 19.5285 23.25 18.225C23.2315 17.9715 23.157 17.7252 23.0319 17.5039C22.9067 17.2827 22.734 17.092 22.5262 16.9455ZM17.526 21.7455C16.875 21.69 12.84 21.1583 7.8 16.2075C2.82525 11.1428 2.307 7.101 2.25525 6.47475C3.23833 4.93173 4.42559 3.52877 5.78475 2.304C5.81475 2.334 5.8545 2.379 5.9055 2.4375C6.94787 3.86042 7.84581 5.3837 8.586 6.98475C8.34529 7.2269 8.09088 7.45503 7.824 7.668C7.41014 7.98334 7.03011 8.34075 6.69 8.7345C6.63245 8.81525 6.59149 8.9066 6.56947 9.00328C6.54746 9.09996 6.54483 9.20005 6.56175 9.29775C6.72047 9.9853 6.96356 10.6506 7.2855 11.2785C8.43892 13.647 10.3528 15.5607 12.7215 16.7137C13.3493 17.0361 14.0146 17.2795 14.7023 17.4382C14.8 17.4552 14.9 17.4525 14.9967 17.4305C15.0934 17.4085 15.1848 17.3675 15.2655 17.31C15.6606 16.9685 16.0193 16.587 16.3358 16.1715C16.5712 15.891 16.8855 15.5168 17.0047 15.411C18.6099 16.1505 20.1365 17.0495 21.5618 18.0945C21.624 18.147 21.6683 18.1875 21.6975 18.2137C20.4727 19.5733 19.0694 20.7609 17.526 21.744V21.7455Z" fill="#EDF6FF"/>
<path d="M12.75 6.75C13.9431 6.75119 15.087 7.22568 15.9307 8.06933C16.7743 8.91299 17.2488 10.0569 17.25 11.25C17.25 11.4489 17.329 11.6397 17.4697 11.7803C17.6103 11.921 17.8011 12 18 12C18.1989 12 18.3897 11.921 18.5303 11.7803C18.671 11.6397 18.75 11.4489 18.75 11.25C18.7482 9.65925 18.1155 8.13416 16.9907 7.00933C15.8658 5.8845 14.3408 5.25179 12.75 5.25C12.5511 5.25 12.3603 5.32902 12.2197 5.46967C12.079 5.61032 12 5.80109 12 6C12 6.19891 12.079 6.38968 12.2197 6.53033C12.3603 6.67098 12.5511 6.75 12.75 6.75Z" fill="#EDF6FF"/>
<path d="M12.75 3C14.9372 3.00258 17.0342 3.8726 18.5808 5.41922C20.1274 6.96584 20.9974 9.06276 21 11.25C21 11.4489 21.079 11.6397 21.2197 11.7803C21.3603 11.921 21.5511 12 21.75 12C21.9489 12 22.1397 11.921 22.2803 11.7803C22.421 11.6397 22.5 11.4489 22.5 11.25C22.497 8.66505 21.4688 6.18683 19.641 4.359C17.8132 2.53116 15.3349 1.50298 12.75 1.5C12.5511 1.5 12.3603 1.57902 12.2197 1.71967C12.079 1.86032 12 2.05109 12 2.25C12 2.44891 12.079 2.63968 12.2197 2.78033C12.3603 2.92098 12.5511 3 12.75 3Z" fill="#EDF6FF"/>
</svg>
