<svg width="435" height="123" viewBox="0 0 435 123" fill="none" xmlns="http://www.w3.org/2000/svg">
<path d="M162.827 121.604C83.8141 134.386 100.234 45.3375 90.5695 23.7844C85.2572 9.75092 71.4111 2.73039 71.4111 2.73039C106.176 -6.24031 119.83 27.0489 123.488 73.6849C126.745 115.219 155.404 120.781 161.637 121.499C161.65 121.504 161.662 121.505 161.672 121.503C162.052 121.529 162.412 121.56 162.752 121.596C162.802 121.602 162.827 121.604 162.827 121.604Z" fill="url(#paint0_linear_118_3054)"/>
<path style="mix-blend-mode:overlay" opacity="0.74" d="M161.638 121.499C147.608 120.418 112.942 122.614 109.779 59.3083C106.515 -5.86979 67.1567 1.27948 53.9814 1.98153C112.619 -8.98613 119.83 27.0488 123.489 73.6848C126.746 115.219 155.405 120.781 161.638 121.499Z" fill="url(#paint1_linear_118_3054)"/>
<path d="M0.000572205 121.751C79.013 134.533 62.5927 45.4845 72.2577 23.9314C77.5699 9.89795 91.416 2.87741 91.416 2.87741C56.651 -6.09329 42.9976 27.1959 39.3391 73.8319C36.0823 115.366 7.42285 120.928 1.19016 121.646C1.17716 121.651 1.16547 121.652 1.15507 121.65C0.775444 121.676 0.415306 121.707 0.0746765 121.743C0.0252762 121.749 0.000572205 121.751 0.000572205 121.751Z" fill="url(#paint2_linear_118_3054)"/>
<path style="mix-blend-mode:overlay" opacity="0.74" d="M1.19037 121.646C15.2198 120.566 49.8857 122.761 53.0489 59.4555C56.3134 -5.72255 95.6714 1.42672 108.847 2.12878C50.2094 -8.83889 42.9978 27.196 39.3393 73.832C36.0825 115.366 7.42307 120.928 1.19037 121.646Z" fill="url(#paint3_linear_118_3054)"/>
<path d="M185.049 60.894H176.789L168.352 48.799C167.821 48.858 167.29 48.858 166.759 48.858H157.437V60.894H149.767V19.594H166.759C177.615 19.594 184.341 25.14 184.341 34.285C184.341 40.539 181.155 45.141 175.55 47.324L185.049 60.894ZM176.612 34.285C176.612 29.093 173.131 26.084 166.405 26.084H157.437V42.545H166.405C173.131 42.545 176.612 39.477 176.612 34.285ZM207.2 55.053C210.74 55.053 213.454 53.932 215.755 51.631L219.649 56.174C216.876 59.537 212.451 61.307 207.023 61.307C196.462 61.307 189.618 54.522 189.618 45.141C189.618 35.76 196.462 29.034 205.843 29.034C214.634 29.034 221.714 34.934 221.773 44.787L197.642 49.507C199.176 53.106 202.598 55.053 207.2 55.053ZM205.843 34.934C200.474 34.934 196.757 38.71 196.757 44.728V44.787L214.575 41.365C213.572 37.53 210.268 34.934 205.843 34.934ZM238.594 61.307C233.343 61.307 228.092 59.773 225.26 57.767L228.092 52.162C230.865 53.991 235.113 55.289 239.066 55.289C243.727 55.289 245.674 53.991 245.674 51.808C245.674 45.79 226.204 51.454 226.204 38.887C226.204 32.928 231.573 29.034 240.069 29.034C244.258 29.034 249.037 30.037 251.869 31.748L249.037 37.353C246.028 35.583 243.019 34.993 240.01 34.993C235.526 34.993 233.402 36.468 233.402 38.533C233.402 44.905 252.872 39.241 252.872 51.572C252.872 57.472 247.444 61.307 238.594 61.307ZM273.383 61.307C263.707 61.307 256.627 54.581 256.627 45.141C256.627 35.701 263.707 29.034 273.383 29.034C283.177 29.034 290.198 35.701 290.198 45.141C290.198 54.581 283.177 61.307 273.383 61.307ZM273.383 54.994C278.752 54.994 282.764 51.159 282.764 45.141C282.764 39.123 278.752 35.288 273.383 35.288C268.073 35.288 264.061 39.123 264.061 45.141C264.061 51.159 268.073 54.994 273.383 54.994ZM315.127 29.034C322.679 29.034 328.284 33.341 328.284 42.84V60.894H320.909V43.784C320.909 38.179 318.136 35.465 313.416 35.465C308.165 35.465 304.625 38.651 304.625 44.964V60.894H297.25V29.388H304.271V33.459C306.69 30.568 310.525 29.034 315.127 29.034ZM352.914 55.053C356.454 55.053 359.168 53.932 361.469 51.631L365.363 56.174C362.59 59.537 358.165 61.307 352.737 61.307C342.176 61.307 335.332 54.522 335.332 45.141C335.332 35.76 342.176 29.034 351.557 29.034C360.348 29.034 367.428 34.934 367.487 44.787L343.356 49.507C344.89 53.106 348.312 55.053 352.914 55.053ZM351.557 34.934C346.188 34.934 342.471 38.71 342.471 44.728V44.787L360.289 41.365C359.286 37.53 355.982 34.934 351.557 34.934ZM392.449 29.034C400.001 29.034 405.606 33.341 405.606 42.84V60.894H398.231V43.784C398.231 38.179 395.458 35.465 390.738 35.465C385.487 35.465 381.947 38.651 381.947 44.964V60.894H374.572V29.388H381.593V33.459C384.012 30.568 387.847 29.034 392.449 29.034ZM430.597 53.932L432.662 59.183C430.892 60.599 428.237 61.307 425.582 61.307C418.679 61.307 414.726 57.649 414.726 50.687V22.426H422.101V29.624H430.538V35.524H422.101V50.51C422.101 53.578 423.694 55.23 426.467 55.23C428.001 55.23 429.476 54.817 430.597 53.932Z" fill="#223648"/>
<path d="M156.57 81.374L155.67 83.374C154.37 82.634 153.01 82.174 151.55 82.014V93.894H148.95V82.014C147.49 82.174 146.11 82.634 144.81 83.374L143.91 81.374C145.81 80.234 148.01 79.694 150.23 79.694C152.45 79.694 154.67 80.234 156.57 81.374ZM162.24 91.914C163.44 91.914 164.36 91.534 165.14 90.754L166.46 92.294C165.52 93.434 164.02 94.034 162.18 94.034C158.6 94.034 156.28 91.734 156.28 88.554C156.28 85.374 158.6 83.094 161.78 83.094C164.76 83.094 167.16 85.094 167.18 88.434L159 90.034C159.52 91.254 160.68 91.914 162.24 91.914ZM161.78 85.094C159.96 85.094 158.7 86.374 158.7 88.414V88.434L164.74 87.274C164.4 85.974 163.28 85.094 161.78 85.094ZM174.682 94.034C171.302 94.034 168.902 91.754 168.902 88.554C168.902 85.354 171.302 83.094 174.682 83.094C176.762 83.094 178.422 83.954 179.242 85.574L177.322 86.694C176.682 85.674 175.722 85.214 174.662 85.214C172.822 85.214 171.422 86.494 171.422 88.554C171.422 90.634 172.822 91.894 174.662 91.894C175.722 91.894 176.682 91.434 177.322 90.414L179.242 91.534C178.422 93.134 176.762 94.034 174.682 94.034ZM187.566 83.094C190.126 83.094 192.026 84.554 192.026 87.774V93.894H189.526V88.094C189.526 86.194 188.586 85.274 186.986 85.274C185.206 85.274 184.006 86.354 184.006 88.494V93.894H181.506V79.054H184.006V84.454C184.826 83.574 186.086 83.094 187.566 83.094ZM201.457 83.094C204.017 83.094 205.917 84.554 205.917 87.774V93.894H203.417V88.094C203.417 86.194 202.477 85.274 200.877 85.274C199.097 85.274 197.897 86.354 197.897 88.494V93.894H195.397V83.214H197.777V84.594C198.597 83.614 199.897 83.094 201.457 83.094ZM214.186 94.034C210.906 94.034 208.506 91.754 208.506 88.554C208.506 85.354 210.906 83.094 214.186 83.094C217.506 83.094 219.886 85.354 219.886 88.554C219.886 91.754 217.506 94.034 214.186 94.034ZM214.186 91.894C216.006 91.894 217.366 90.594 217.366 88.554C217.366 86.514 216.006 85.214 214.186 85.214C212.386 85.214 211.026 86.514 211.026 88.554C211.026 90.594 212.386 91.894 214.186 91.894ZM231.724 94.034C229.504 94.034 228.204 92.774 228.204 90.554V79.054H230.704V90.374C230.704 91.414 231.204 91.974 232.204 91.974C232.544 91.974 232.904 91.874 233.104 91.774L233.224 93.774C232.744 93.954 232.224 94.034 231.724 94.034ZM242.867 83.214H245.367V93.894H242.987V92.514C242.147 93.534 240.907 94.034 239.447 94.034C236.327 94.034 234.047 91.874 234.047 88.554C234.047 85.234 236.327 83.094 239.447 83.094C240.807 83.094 242.007 83.554 242.867 84.514V83.214ZM239.727 91.894C241.547 91.894 242.907 90.594 242.907 88.554C242.907 86.514 241.547 85.214 239.727 85.214C237.927 85.214 236.567 86.514 236.567 88.554C236.567 90.594 237.927 91.894 239.727 91.894ZM254.758 83.094C257.878 83.094 260.178 85.234 260.178 88.554C260.178 91.874 257.878 94.034 254.758 94.034C253.298 94.034 252.058 93.534 251.218 92.514V93.894H248.838V79.054H251.338V84.514C252.198 83.554 253.398 83.094 254.758 83.094ZM254.478 91.894C256.278 91.894 257.638 90.594 257.638 88.554C257.638 86.514 256.278 85.214 254.478 85.214C252.678 85.214 251.298 86.514 251.298 88.554C251.298 90.594 252.678 91.894 254.478 91.894ZM266.049 94.034C264.269 94.034 262.489 93.514 261.529 92.834L262.489 90.934C263.429 91.554 264.869 91.994 266.209 91.994C267.789 91.994 268.449 91.554 268.449 90.814C268.449 88.774 261.849 90.694 261.849 86.434C261.849 84.414 263.669 83.094 266.549 83.094C267.969 83.094 269.589 83.434 270.549 84.014L269.589 85.914C268.569 85.314 267.549 85.114 266.529 85.114C265.009 85.114 264.289 85.614 264.289 86.314C264.289 88.474 270.889 86.554 270.889 90.734C270.889 92.734 269.049 94.034 266.049 94.034ZM284.97 79.894C288.65 79.894 290.93 81.774 290.93 84.874C290.93 87.954 288.65 89.854 284.97 89.854H281.81V93.894H279.21V79.894H284.97ZM284.85 87.654C287.13 87.654 288.31 86.634 288.31 84.874C288.31 83.114 287.13 82.094 284.85 82.094H281.81V87.654H284.85ZM301.184 83.214H303.584L299.004 93.894H296.424L291.844 83.214H294.444L297.764 91.134L301.184 83.214ZM310.646 91.534L311.346 93.314C310.746 93.794 309.846 94.034 308.946 94.034C306.606 94.034 305.266 92.794 305.266 90.434V80.854H307.766V83.294H310.626V85.294H307.766V90.374C307.766 91.414 308.306 91.974 309.246 91.974C309.766 91.974 310.266 91.834 310.646 91.534ZM314.608 94.034C313.708 94.034 312.968 93.334 312.968 92.374C312.968 91.374 313.708 90.714 314.608 90.714C315.508 90.714 316.248 91.374 316.248 92.374C316.248 93.334 315.508 94.034 314.608 94.034Z" fill="#223648"/>
<defs>
<linearGradient id="paint0_linear_118_3054" x1="138.046" y1="-65.9687" x2="223.446" y2="76.1288" gradientUnits="userSpaceOnUse">
<stop stop-color="#1B86F8"/>
<stop offset="1" stop-color="#7FECFE"/>
</linearGradient>
<linearGradient id="paint1_linear_118_3054" x1="12.0629" y1="73.1645" x2="87.0887" y2="-128.701" gradientUnits="userSpaceOnUse">
<stop stop-opacity="0.8"/>
<stop offset="0.994" stop-color="white" stop-opacity="0"/>
</linearGradient>
<linearGradient id="paint2_linear_118_3054" x1="24.7812" y1="-65.8217" x2="-60.6192" y2="76.2759" gradientUnits="userSpaceOnUse">
<stop stop-color="#1B86F8"/>
<stop offset="1" stop-color="#7FECFE"/>
</linearGradient>
<linearGradient id="paint3_linear_118_3054" x1="150.765" y1="73.3117" x2="75.7394" y2="-128.553" gradientUnits="userSpaceOnUse">
<stop stop-opacity="0.8"/>
<stop offset="0.994" stop-color="white" stop-opacity="0"/>
</linearGradient>
</defs>
</svg>
