<svg width="52" height="52" viewBox="0 0 52 52" fill="none" xmlns="http://www.w3.org/2000/svg">
<path d="M0 32.2589C1.75467 32.178 3.23939 31.5031 4.45416 30.2343C5.66893 28.9656 6.28982 27.4538 6.28982 25.6992C6.28982 27.4538 6.88371 28.9656 8.09848 30.2343C9.31325 31.5031 10.798 32.178 12.5526 32.2589C10.798 32.3399 9.31325 33.0148 8.09848 34.2836C7.51117 34.8817 7.04878 35.5907 6.73826 36.3693C6.42774 37.1479 6.2753 37.9806 6.28982 38.8187C6.28982 37.064 5.69593 35.5523 4.45416 34.2836C3.23939 33.0148 1.75467 32.3399 0 32.2589ZM6.28982 12.8226C9.69118 12.6606 12.5796 11.3379 14.9552 8.85434C17.3307 6.3708 18.5185 3.42836 18.5185 0C18.5185 3.42836 19.7063 6.3708 22.0819 8.85434C24.4574 11.3379 27.3459 12.6336 30.7742 12.8226C28.5336 12.9306 26.482 13.5515 24.5924 14.7392C22.7297 15.9 21.245 17.4657 20.1382 19.4094C19.0584 21.353 18.5185 23.4316 18.5185 25.6992C18.5185 22.2708 17.3307 19.3014 14.9552 16.8178C12.5796 14.3073 9.69118 12.9846 6.28982 12.8226ZM15.2521 41.8961C17.8167 41.7882 20.0032 40.7893 21.7849 38.9267C23.5666 37.064 24.4574 34.8505 24.4574 32.2589C24.4574 34.8505 25.3482 37.064 27.1299 38.9267C28.9116 40.7893 31.0712 41.7882 33.6357 41.8961C31.0712 42.0041 28.9116 43.0029 27.1299 44.8656C25.3482 46.7282 24.4574 48.9418 24.4574 51.5333C24.4574 48.9418 23.5666 46.7282 21.7849 44.8656C20.082 43.0559 17.7353 41.9892 15.2521 41.8961ZM33.6357 29.1005C36.2002 28.9926 38.3598 27.9937 40.1415 26.1311C41.9231 24.2684 42.787 22.0549 42.787 19.4363C42.787 22.0279 43.6778 24.2414 45.4595 26.1041C47.2411 27.9667 49.4277 28.9656 51.9922 29.0735C49.4277 29.1815 47.2411 30.1803 45.4595 32.043C43.6778 33.9056 42.787 36.1192 42.787 38.7107C42.787 36.1192 41.8961 33.9056 40.1415 32.043C38.3598 30.2073 36.2002 29.2085 33.6357 29.1005Z" fill="#002556"/>
<path d="M0 32.2589C1.75467 32.178 3.23939 31.5031 4.45416 30.2343C5.66893 28.9656 6.28982 27.4538 6.28982 25.6992C6.28982 27.4538 6.88371 28.9656 8.09848 30.2343C9.31325 31.5031 10.798 32.178 12.5526 32.2589C10.798 32.3399 9.31325 33.0148 8.09848 34.2836C7.51117 34.8817 7.04878 35.5907 6.73826 36.3693C6.42774 37.1479 6.2753 37.9806 6.28982 38.8187C6.28982 37.064 5.69593 35.5523 4.45416 34.2836C3.23939 33.0148 1.75467 32.3399 0 32.2589ZM6.28982 12.8226C9.69118 12.6606 12.5796 11.3379 14.9552 8.85434C17.3307 6.3708 18.5185 3.42836 18.5185 0C18.5185 3.42836 19.7063 6.3708 22.0819 8.85434C24.4574 11.3379 27.3459 12.6336 30.7742 12.8226C28.5336 12.9306 26.482 13.5515 24.5924 14.7392C22.7297 15.9 21.245 17.4657 20.1382 19.4094C19.0584 21.353 18.5185 23.4316 18.5185 25.6992C18.5185 22.2708 17.3307 19.3014 14.9552 16.8178C12.5796 14.3073 9.69118 12.9846 6.28982 12.8226ZM15.2521 41.8961C17.8167 41.7882 20.0032 40.7893 21.7849 38.9267C23.5666 37.064 24.4574 34.8505 24.4574 32.2589C24.4574 34.8505 25.3482 37.064 27.1299 38.9267C28.9116 40.7893 31.0712 41.7882 33.6357 41.8961C31.0712 42.0041 28.9116 43.0029 27.1299 44.8656C25.3482 46.7282 24.4574 48.9418 24.4574 51.5333C24.4574 48.9418 23.5666 46.7282 21.7849 44.8656C20.082 43.0559 17.7353 41.9892 15.2521 41.8961ZM33.6357 29.1005C36.2002 28.9926 38.3598 27.9937 40.1415 26.1311C41.9231 24.2684 42.787 22.0549 42.787 19.4363C42.787 22.0279 43.6778 24.2414 45.4595 26.1041C47.2411 27.9667 49.4277 28.9656 51.9922 29.0735C49.4277 29.1815 47.2411 30.1803 45.4595 32.043C43.6778 33.9056 42.787 36.1192 42.787 38.7107C42.787 36.1192 41.8961 33.9056 40.1415 32.043C38.3598 30.2073 36.2002 29.2085 33.6357 29.1005Z" fill="url(#paint0_linear_20_8)" fill-opacity="0.3"/>
<defs>
<linearGradient id="paint0_linear_20_8" x1="49.3429" y1="-4.48964" x2="-12.8821" y2="31.6791" gradientUnits="userSpaceOnUse">
<stop stop-color="#042F69"/>
<stop offset="0.213542" stop-color="#3590F2"/>
<stop offset="0.71875" stop-color="#3590F2"/>
<stop offset="1" stop-color="#042F69"/>
</linearGradient>
</defs>
</svg>
