<svg width="32" height="31" viewBox="0 0 32 31" fill="none" xmlns="http://www.w3.org/2000/svg">
<path d="M9.28121 7.41245L5.53121 19.1125C5.50896 19.1775 5.50245 19.2468 5.51223 19.3149C5.522 19.3829 5.54777 19.4476 5.58742 19.5037C5.62708 19.5599 5.67948 19.6058 5.74034 19.6377C5.80119 19.6697 5.86875 19.6867 5.93746 19.6875H6.98746C7.08118 19.6872 7.1723 19.6566 7.2472 19.6003C7.32211 19.5439 7.37679 19.4649 7.40309 19.375L7.99059 17.5H13.125L13.0531 17.3843L13.6968 19.375C13.7231 19.4649 13.7778 19.5439 13.8527 19.6003C13.9276 19.6566 14.0187 19.6872 14.1125 19.6875H15.1625C15.2312 19.6879 15.2991 19.6719 15.3605 19.641C15.422 19.61 15.4752 19.5649 15.5157 19.5094C15.5563 19.4538 15.5831 19.3895 15.594 19.3215C15.6048 19.2536 15.5994 19.1841 15.5781 19.1187L11.8281 7.4187C11.8014 7.32901 11.7466 7.25025 11.6717 7.194C11.5969 7.13775 11.5061 7.10698 11.4125 7.1062H9.68746C9.59615 7.10806 9.50775 7.13865 9.43481 7.19363C9.36188 7.24861 9.30814 7.32518 9.28121 7.41245ZM8.61559 15.625L10.55 9.60308L12.5 15.625H8.61559Z" fill="#EDF6FF"/>
<path d="M19.875 7.10938H18.875C18.6334 7.10938 18.4375 7.30525 18.4375 7.54688V19.2469C18.4375 19.4885 18.6334 19.6844 18.875 19.6844H19.875C20.1166 19.6844 20.3125 19.4885 20.3125 19.2469V7.54688C20.3125 7.30525 20.1166 7.10938 19.875 7.10938Z" fill="#EDF6FF"/>
<path d="M14.7688 24.375H5.675C4.9987 24.375 4.35009 24.1063 3.87188 23.6281C3.39366 23.1499 3.125 22.5013 3.125 21.825V5.67501C3.125 4.99871 3.39366 4.3501 3.87188 3.87188C4.35009 3.39367 4.9987 3.12501 5.675 3.12501H21.825C22.5013 3.12501 23.1499 3.39367 23.6281 3.87188C24.1063 4.3501 24.375 4.99871 24.375 5.67501V13.75C24.3807 13.9205 24.4535 14.0818 24.5776 14.1989C24.7017 14.3159 24.867 14.3792 25.0375 14.375C25.5696 14.3734 26.0949 14.4953 26.5719 14.7313C26.6709 14.7821 26.7814 14.8063 26.8926 14.8017C27.0037 14.797 27.1118 14.7637 27.2063 14.7048C27.3007 14.6459 27.3783 14.5636 27.4314 14.4658C27.4845 14.368 27.5114 14.2581 27.5094 14.1469V5.67501C27.5094 4.92897 27.3623 4.19025 27.0765 3.50111C26.7907 2.81198 26.3719 2.18595 25.8439 1.65886C25.3159 1.13176 24.6892 0.713941 23.9996 0.429298C23.31 0.144654 22.571 -0.0012247 21.825 7.74437e-06H5.675C4.1699 7.74437e-06 2.72644 0.597908 1.66217 1.66218C0.5979 2.72645 0 4.1699 0 5.67501V21.825C0 23.3301 0.5979 24.7736 1.66217 25.8378C2.72644 26.9021 4.1699 27.5 5.675 27.5H16.0812C16.2091 27.5002 16.3342 27.4624 16.4406 27.3916C16.547 27.3207 16.6301 27.2199 16.6792 27.1018C16.7284 26.9838 16.7415 26.8538 16.7168 26.7283C16.6921 26.6029 16.6308 26.4875 16.5406 26.3969C16.0544 25.9508 15.6605 25.4135 15.3813 24.8156C15.3365 24.6883 15.2538 24.5778 15.1443 24.4991C15.0347 24.4203 14.9037 24.377 14.7688 24.375Z" fill="#EDF6FF"/>
<path d="M28.666 25.5624L31.4972 24.4468C31.5555 24.4237 31.6056 24.3837 31.6408 24.3319C31.676 24.2801 31.6949 24.2188 31.6949 24.1562C31.6949 24.0935 31.676 24.0322 31.6408 23.9804C31.6056 23.9286 31.5555 23.8886 31.4972 23.8655L28.666 22.7499C28.1648 22.5517 27.7096 22.2529 27.3285 21.8718C26.9474 21.4907 26.6485 21.0355 26.4504 20.5343L25.3347 17.7218C25.3116 17.6636 25.2715 17.6138 25.2197 17.5787C25.1679 17.5436 25.1067 17.5248 25.0441 17.5249C24.9815 17.5248 24.9204 17.5436 24.8686 17.5787C24.8167 17.6138 24.7767 17.6636 24.7535 17.7218L23.6379 20.5343C23.4402 21.0358 23.1415 21.4912 22.7603 21.8724C22.3792 22.2535 21.9237 22.5522 21.4222 22.7499L18.6097 23.8655C18.5515 23.8886 18.5014 23.9286 18.4662 23.9804C18.431 24.0322 18.4121 24.0935 18.4121 24.1562C18.4121 24.2188 18.431 24.2801 18.4662 24.3319C18.5014 24.3837 18.5515 24.4237 18.6097 24.4468L21.4222 25.5624C21.9237 25.7601 22.3792 26.0588 22.7603 26.4399C23.1415 26.8211 23.4402 27.2766 23.6379 27.778L24.7535 30.5905C24.7762 30.6493 24.816 30.6998 24.8679 30.7355C24.9197 30.7711 24.9812 30.7903 25.0441 30.7905C25.1071 30.7903 25.1685 30.7711 25.2204 30.7355C25.2722 30.6998 25.3121 30.6493 25.3347 30.5905L26.4504 27.778C26.6485 27.2768 26.9474 26.8216 27.3285 26.4405C27.7096 26.0594 28.1648 25.7606 28.666 25.5624Z" fill="#EDF6FF"/>
</svg>
