<svg width="67" height="65" viewBox="0 0 67 65" fill="none" xmlns="http://www.w3.org/2000/svg">
<rect width="66.2617" height="64.9744" rx="6" fill="#053876"/>
<path d="M48.2617 32.4859C48.2617 32.921 48.0889 33.3383 47.7812 33.6459C47.4735 33.9536 47.0562 34.1265 46.6211 34.1265H23.6068L30.6505 41.1689C30.9587 41.4771 31.1319 41.8951 31.1319 42.331C31.1319 42.7668 30.9587 43.1849 30.6505 43.4931C30.3423 43.8013 29.9243 43.9744 29.4884 43.9744C29.0525 43.9744 28.6345 43.8013 28.3263 43.4931L18.4825 33.6493C18.3296 33.4969 18.2082 33.3158 18.1254 33.1164C18.0426 32.917 18 32.7031 18 32.4872C18 32.2713 18.0426 32.0575 18.1254 31.8581C18.2082 31.6586 18.3296 31.4775 18.4825 31.3251L28.3263 21.4814C28.4789 21.3288 28.6601 21.2077 28.8595 21.1251C29.0589 21.0425 29.2726 21 29.4884 21C29.7042 21 29.9179 21.0425 30.1173 21.1251C30.3167 21.2077 30.4979 21.3288 30.6505 21.4814C30.8031 21.634 30.9242 21.8151 31.0068 22.0145C31.0894 22.2139 31.1319 22.4276 31.1319 22.6435C31.1319 22.8593 31.0894 23.073 31.0068 23.2724C30.9242 23.4718 30.8031 23.653 30.6505 23.8056L23.6068 30.8452H46.6211C47.0562 30.8452 47.4735 31.0181 47.7812 31.3258C48.0889 31.6334 48.2617 32.0507 48.2617 32.4859Z" fill="#EDF6FF"/>
</svg>
