<svg width="27" height="27" viewBox="0 0 27 27" fill="none" xmlns="http://www.w3.org/2000/svg">
<path d="M25.0028 17.5005C24.5609 17.5011 24.1374 17.677 23.8249 17.9894C23.5125 18.3019 23.3366 18.7255 23.336 19.1673V23.3345H3.33371V19.1673C3.33371 18.7253 3.1581 18.3013 2.8455 17.9887C2.5329 17.6761 2.10893 17.5005 1.66685 17.5005C1.22478 17.5005 0.800806 17.6761 0.48821 17.9887C0.175615 18.3013 0 18.7253 0 19.1673L0 23.3345C0.000882561 24.2184 0.352395 25.0658 0.977396 25.6908C1.6024 26.3158 2.44983 26.6673 3.33371 26.6682H23.336C24.2199 26.6673 25.0673 26.3158 25.6923 25.6908C26.3173 25.0658 26.6688 24.2184 26.6697 23.3345V19.1673C26.669 18.7255 26.4932 18.3019 26.1807 17.9894C25.8683 17.677 25.4447 17.5011 25.0028 17.5005Z" fill="#1B86F8"/>
<path d="M6.6665 9.9999C6.88547 10.0005 7.10238 9.95763 7.30467 9.8738C7.50696 9.78996 7.69061 9.66682 7.84497 9.51151L11.6671 5.68941V19.1676C11.6671 19.6097 11.8427 20.0336 12.1553 20.3462C12.4679 20.6588 12.8918 20.8345 13.3339 20.8345C13.776 20.8345 14.2 20.6588 14.5126 20.3462C14.8252 20.0336 15.0008 19.6097 15.0008 19.1676V5.68941L18.8229 9.51151C18.9766 9.67071 19.1606 9.7977 19.3639 9.88506C19.5673 9.97241 19.786 10.0184 20.0073 10.0203C20.2287 10.0222 20.4482 9.98007 20.653 9.89626C20.8579 9.81245 21.044 9.68868 21.2005 9.53217C21.357 9.37567 21.4807 9.18956 21.5646 8.98471C21.6484 8.77986 21.6905 8.56037 21.6886 8.33904C21.6867 8.11772 21.6407 7.899 21.5534 7.69563C21.466 7.49227 21.339 7.30834 21.1798 7.15458L14.5141 0.489659C14.3597 0.333609 14.1754 0.210303 13.9723 0.127118C13.6677 0.000825469 13.3326 -0.0322977 13.0091 0.0319387C12.6857 0.0961751 12.3886 0.254885 12.1555 0.487992L5.48803 7.15458C5.25499 7.38769 5.0963 7.68466 5.03201 8.00796C4.96772 8.33125 5.00073 8.66634 5.12686 8.97087C5.25299 9.27541 5.46658 9.53571 5.74063 9.71887C6.01468 9.90203 6.33688 9.99983 6.6665 9.9999Z" fill="#1B86F8"/>
</svg>
