<svg width="40" height="40" viewBox="0 0 40 40" fill="none" xmlns="http://www.w3.org/2000/svg">
<g clip-path="url(#clip0_63_997)">
<path d="M13.2023 25.5329C12.8239 25.9147 12.6121 26.4309 12.6133 26.9684C12.6145 27.506 12.8286 28.0212 13.2087 28.4013C13.5889 28.7814 14.1041 28.9954 14.6416 28.9966C15.1792 28.9977 15.6953 28.7859 16.0771 28.4074C18.2399 26.2446 21.7598 26.2446 23.9226 28.4074C24.3196 28.8042 24.84 29.0029 25.3601 29.0029C25.8802 29.0029 26.4006 28.8045 26.7976 28.4074C27.1788 28.0262 27.3929 27.5093 27.3929 26.9702C27.3929 26.4311 27.1788 25.9141 26.7976 25.5329C23.0493 21.7846 16.9506 21.7846 13.2023 25.5329Z" fill="#EDF6FF"/>
<path d="M7.24332 19.5752C6.86489 19.957 6.6531 20.4731 6.6543 21.0107C6.6555 21.5483 6.8696 22.0635 7.24973 22.4436C7.62987 22.8237 8.14509 23.0377 8.68265 23.0389C9.22022 23.04 9.73636 22.8282 10.1181 22.4497C15.5663 17.0015 24.4314 17.0015 29.8793 22.4497C30.2764 22.8465 30.7968 23.0452 31.3169 23.0452C31.837 23.0452 32.3574 22.8468 32.7544 22.4497C33.1356 22.0685 33.3497 21.5515 33.3497 21.0124C33.3497 20.4734 33.1356 19.9564 32.7544 19.5752C25.7209 12.542 14.2768 12.542 7.24332 19.5752Z" fill="#EDF6FF"/>
<path d="M39.4042 12.9258C28.7043 2.2259 11.2945 2.2259 0.594879 12.9258C0.216448 13.3076 0.00466205 13.8238 0.00586447 14.3613C0.00706688 14.8989 0.22116 15.4141 0.601295 15.7942C0.98143 16.1743 1.49665 16.3884 2.03422 16.3895C2.57178 16.3907 3.08792 16.1788 3.46968 15.8004C7.88473 11.385 13.7552 8.95363 19.9994 8.95363C26.2437 8.95363 32.1141 11.3853 36.5292 15.8004C36.9262 16.1971 37.4466 16.3958 37.9667 16.3958C38.4868 16.3958 39.0072 16.1974 39.4042 15.8004C39.7854 15.4192 39.9995 14.9022 39.9995 14.3631C39.9995 13.824 39.7854 13.307 39.4042 12.9258Z" fill="#EDF6FF"/>
<path d="M20.0004 35.0989C21.2324 35.0989 22.2312 34.1001 22.2312 32.868C22.2312 31.636 21.2324 30.6372 20.0004 30.6372C18.7683 30.6372 17.7695 31.636 17.7695 32.868C17.7695 34.1001 18.7683 35.0989 20.0004 35.0989Z" fill="#EDF6FF"/>
</g>
<defs>
<clipPath id="clip0_63_997">
<rect width="40" height="40" fill="white"/>
</clipPath>
</defs>
</svg>
