<svg width="20" height="20" viewBox="0 0 20 20" fill="none" xmlns="http://www.w3.org/2000/svg">
<path d="M15.8327 4.16699H14.9993V2.50033C14.9993 2.27931 14.9116 2.06735 14.7553 1.91107C14.599 1.75479 14.387 1.66699 14.166 1.66699C13.945 1.66699 13.733 1.75479 13.5768 1.91107C13.4205 2.06735 13.3327 2.27931 13.3327 2.50033V4.16699H6.66602V2.50033C6.66602 2.27931 6.57822 2.06735 6.42194 1.91107C6.26566 1.75479 6.0537 1.66699 5.83268 1.66699C5.61167 1.66699 5.39971 1.75479 5.24343 1.91107C5.08715 2.06735 4.99935 2.27931 4.99935 2.50033V4.16699H4.16602C3.50297 4.16699 2.86709 4.43038 2.39825 4.89923C1.92941 5.36807 1.66602 6.00395 1.66602 6.66699V7.50033H18.3327V6.66699C18.3327 6.00395 18.0693 5.36807 17.6005 4.89923C17.1316 4.43038 16.4957 4.16699 15.8327 4.16699ZM1.66602 15.8337C1.66602 16.4967 1.92941 17.1326 2.39825 17.6014C2.86709 18.0703 3.50297 18.3337 4.16602 18.3337H15.8327C16.4957 18.3337 17.1316 18.0703 17.6005 17.6014C18.0693 17.1326 18.3327 16.4967 18.3327 15.8337V9.16699H1.66602V15.8337Z" fill="#9AADC4"/>
</svg>
