<svg width="40" height="40" viewBox="0 0 40 40" fill="none" xmlns="http://www.w3.org/2000/svg">
<g clip-path="url(#clip0_9_56)">
<path d="M35.7031 25.9159C33.7401 25.9159 32.0816 27.2396 31.57 29.0409H27.4219V24.4663H31.6573C36.2575 24.4663 40 20.7238 40 16.1236C40 12.4352 37.5537 9.19509 34.0809 8.13978C33.0312 3.93634 29.2368 0.921572 24.8423 0.921572C23.1388 0.921572 21.507 1.36087 20.0668 2.20017C18.5416 0.805322 16.5416 0.0217285 14.4403 0.0217285C9.93305 0.0217285 6.24914 3.61478 6.10211 8.08681C2.53484 9.08392 0 12.3501 0 16.1236C0 20.7238 3.7425 24.4663 8.34273 24.4663H12.5781V29.0409H8.43C7.91852 27.2396 6.25992 25.9159 4.29688 25.9159C1.92758 25.9159 0 27.8435 0 30.2128C0 32.5821 1.92758 34.5097 4.29688 34.5097C6.25992 34.5097 7.91844 33.186 8.43 31.3847H13.75C14.3972 31.3847 14.9219 30.86 14.9219 30.2128V24.4663H18.8281V31.5484C17.0268 32.0599 15.7031 33.7185 15.7031 35.6816C15.7031 38.0509 17.6307 39.9784 20 39.9784C22.3693 39.9784 24.2969 38.0509 24.2969 35.6816C24.2969 33.7185 22.9732 32.06 21.1719 31.5484V24.4663H25.0781V30.2128C25.0781 30.86 25.6028 31.3847 26.25 31.3847H31.57C32.0815 33.186 33.7401 34.5097 35.7031 34.5097C38.0724 34.5097 40 32.5821 40 30.2128C40 27.8435 38.0724 25.9159 35.7031 25.9159ZM8.34273 22.1226C5.03492 22.1226 2.34375 19.4315 2.34375 16.1236C2.34375 13.1671 4.54742 10.6153 7.46953 10.188C8.08617 10.0978 8.5243 9.54079 8.4668 8.92032C8.44976 8.7355 8.44124 8.54999 8.44125 8.36438C8.44125 5.05665 11.1324 2.36556 14.4402 2.36556C16.2051 2.36556 17.8694 3.13274 19.0063 4.4704C19.4054 4.94001 20.1 5.02017 20.5957 4.65392C21.8248 3.74548 23.2932 3.26532 24.8423 3.26532C28.407 3.26532 31.3714 5.88087 31.9255 9.28329C31.9638 9.51826 32.0728 9.73599 32.2379 9.90752C32.4029 10.079 32.6164 10.1962 32.8497 10.2434C35.6348 10.8073 37.6562 13.2802 37.6562 16.1236C37.6562 19.4315 34.965 22.1226 31.6572 22.1226H8.34273Z" fill="#EDF6FF"/>
</g>
<defs>
<clipPath id="clip0_9_56">
<rect width="40" height="40" fill="white"/>
</clipPath>
</defs>
</svg>
