<svg width="30" height="21" viewBox="0 0 30 21" fill="none" xmlns="http://www.w3.org/2000/svg">
<path d="M6.43576 16.7305L7.91074 15.2555C7.95546 15.2108 7.99093 15.1577 8.01512 15.0993C8.03932 15.0409 8.05178 14.9783 8.05178 14.9151C8.05178 14.8518 8.03932 14.7892 8.01512 14.7308C7.99093 14.6724 7.95546 14.6193 7.91074 14.5746L3.68023 10.3444L7.91043 6.11424C7.95514 6.06954 7.99061 6.01647 8.01481 5.95806C8.03901 5.89965 8.05146 5.83705 8.05146 5.77382C8.05146 5.7106 8.03901 5.648 8.01481 5.58959C7.99061 5.53118 7.95514 5.47811 7.91043 5.43341L6.43544 3.95842C6.39075 3.91371 6.33768 3.87824 6.27927 3.85404C6.22086 3.82984 6.15825 3.81739 6.09503 3.81739C6.0318 3.81739 5.9692 3.82984 5.91079 3.85404C5.85238 3.87824 5.79931 3.91371 5.75461 3.95842L0.446817 9.26653C0.16096 9.55209 0.000237033 9.9395 2.61971e-07 10.3436C-0.000236509 10.7476 0.160032 11.1352 0.445554 11.4211L0.446817 11.4224L5.75493 16.7305C5.79963 16.7752 5.8527 16.8106 5.91111 16.8348C5.96951 16.859 6.03212 16.8715 6.09534 16.8715C6.15857 16.8715 6.22117 16.859 6.27958 16.8348C6.33799 16.8106 6.39106 16.7752 6.43576 16.7305ZM23.5497 3.95842L22.0748 5.43341C22.03 5.47811 21.9946 5.53118 21.9704 5.58959C21.9462 5.648 21.9337 5.7106 21.9337 5.77382C21.9337 5.83705 21.9462 5.89965 21.9704 5.95806C21.9946 6.01647 22.03 6.06954 22.0748 6.11424L26.3053 10.3444L22.0748 14.5746C22.03 14.6193 21.9946 14.6724 21.9704 14.7308C21.9462 14.7892 21.9337 14.8518 21.9337 14.9151C21.9337 14.9783 21.9462 15.0409 21.9704 15.0993C21.9946 15.1577 22.03 15.2108 22.0748 15.2555L23.5497 16.7305C23.5944 16.7752 23.6475 16.8106 23.7059 16.8348C23.7643 16.859 23.8269 16.8715 23.8902 16.8715C23.9534 16.8715 24.016 16.859 24.0744 16.8348C24.1328 16.8106 24.1859 16.7752 24.2306 16.7305L29.5387 11.4224C29.8245 11.1368 29.9853 10.7494 29.9855 10.3453C29.9857 9.94129 29.8255 9.55369 29.5399 9.2678L29.5387 9.26653L24.2306 3.95842C24.1859 3.91371 24.1328 3.87824 24.0744 3.85404C24.016 3.82984 23.9534 3.81739 23.8902 3.81739C23.8269 3.81739 23.7643 3.82984 23.7059 3.85404C23.6475 3.87824 23.5944 3.91371 23.5497 3.95842ZM17.9083 0.0331303L19.8495 0.792559C19.9684 0.839105 20.0639 0.930965 20.115 1.04793C20.1662 1.1649 20.1687 1.29739 20.1222 1.41626L12.7009 20.383C12.6543 20.5019 12.5625 20.5974 12.4455 20.6486C12.3285 20.6997 12.1961 20.7023 12.0772 20.6558L10.136 19.8963C10.0171 19.8498 9.92162 19.7579 9.87048 19.641C9.81933 19.524 9.81675 19.3915 9.86329 19.2726L17.2846 0.305842C17.3312 0.186972 17.423 0.09146 17.54 0.0403167C17.6569 -0.0108265 17.7894 -0.0134115 17.9083 0.0331303Z" fill="#EDF6FF"/>
</svg>
