<svg width="40" height="40" viewBox="0 0 40 40" fill="none" xmlns="http://www.w3.org/2000/svg">
<g clip-path="url(#clip0_9_68)">
<path d="M39.6604 29.8441H37.8131V9.13191C37.8131 7.71996 36.6439 6.71851 35.2323 6.71851H4.73053C3.31795 6.71851 2.1875 7.71964 2.1875 9.13191V29.8438H0.301834C0.129312 29.8438 0 29.8276 0 30.0001V30.2911C0 31.8578 1.26325 33.2815 2.8293 33.2815H37.1319C38.6989 33.2815 40 31.8578 40 30.2911V30.0001C40.0003 29.8279 39.8329 29.8441 39.6604 29.8441ZM19.5404 7.67897C19.7717 7.4445 20.1902 7.4445 20.4215 7.67897C20.54 7.79431 20.6057 7.95698 20.6057 8.11965C20.6057 8.20206 20.5894 8.28366 20.5577 8.35976C20.5261 8.43587 20.4798 8.50499 20.4215 8.56319C20.3055 8.67884 20.1463 8.74429 19.9811 8.74429C19.8159 8.74429 19.6561 8.67884 19.5404 8.56319C19.482 8.50506 19.4355 8.43595 19.4039 8.35984C19.3722 8.28372 19.3559 8.2021 19.3558 8.11965C19.3561 7.9538 19.4216 7.79431 19.5404 7.67897ZM35.9376 28.5938H4.06237V9.53128H35.9376V28.5938Z" fill="#EDF6FF"/>
</g>
<defs>
<clipPath id="clip0_9_68">
<rect width="40" height="40" fill="white"/>
</clipPath>
</defs>
</svg>
