<svg width="28" height="28" viewBox="0 0 28 28" fill="none" xmlns="http://www.w3.org/2000/svg">
<path d="M27.0501 26.2337H26.1793V10.1233C26.1793 9.67242 25.8137 9.30688 25.3629 9.30688H22.0973C21.6464 9.30688 21.2809 9.67242 21.2809 10.1233V26.2337H19.6481V15.566C19.6481 15.1151 19.2825 14.7496 18.8317 14.7496H15.566C15.1152 14.7496 14.7496 15.1151 14.7496 15.566V26.2337H13.1168V18.5595C13.1168 18.1086 12.7513 17.7431 12.3004 17.7431H9.03484C8.58397 17.7431 8.21844 18.1086 8.21844 18.5595V26.2337H6.58564V20.5189C6.58564 20.068 6.22011 19.7025 5.76923 19.7025H2.50363C2.05276 19.7025 1.68723 20.068 1.68723 20.5189V26.2337H0.816401C0.36553 26.2337 0 26.5992 0 27.0501C0 27.501 0.36553 27.8665 0.816401 27.8665H27.0501C27.501 27.8665 27.8665 27.501 27.8665 27.0501C27.8665 26.5992 27.501 26.2337 27.0501 26.2337Z" fill="#EDF6FF"/>
<path d="M0.816401 17.5422C5.91172 17.5422 11.4372 15.7123 16.3752 12.3895C20.2425 9.78703 23.4662 6.46246 25.4687 3.05821L26.2616 6.01725C26.3593 6.38202 26.8312 6.69715 27.2614 6.5945C27.7 6.48989 27.9554 6.03015 27.8387 5.59462L26.5018 0.60529C26.3851 0.169818 25.9376 -0.0887101 25.5019 0.028036L20.5126 1.36493C20.0771 1.48162 19.8187 1.92928 19.9354 2.36481C20.0521 2.80033 20.4996 3.05886 20.9352 2.94206L24.1494 2.08081C22.2812 5.32717 19.1937 8.52465 15.4636 11.0348C10.7922 14.1783 5.59044 15.9094 0.816401 15.9094C0.36553 15.9094 0 16.275 0 16.7258C0 17.1767 0.36553 17.5422 0.816401 17.5422Z" fill="#EDF6FF"/>
</svg>
