<svg width="28" height="30" viewBox="0 0 28 30" fill="none" xmlns="http://www.w3.org/2000/svg">
<path d="M15.9961 27.6989H11.1389C10.9028 27.6989 10.6763 27.7927 10.5094 27.9597C10.3424 28.1266 10.2486 28.3531 10.2486 28.5892C10.2486 28.8254 10.3424 29.0518 10.5094 29.2188C10.6763 29.3858 10.9028 29.4796 11.1389 29.4796H15.9961C16.2322 29.4796 16.4587 29.3858 16.6257 29.2188C16.7926 29.0518 16.8864 28.8254 16.8864 28.5892C16.8864 28.3531 16.7926 28.1266 16.6257 27.9597C16.4587 27.7927 16.2322 27.6989 15.9961 27.6989ZM13.5675 3.5237C13.8036 3.5237 14.0301 3.4299 14.1971 3.26293C14.364 3.09596 14.4578 2.8695 14.4578 2.63338V0.890322C14.4578 0.654194 14.364 0.427737 14.1971 0.260769C14.0301 0.0938016 13.8036 0 13.5675 0C13.3314 0 13.1049 0.0938016 12.938 0.260769C12.771 0.427737 12.6772 0.654194 12.6772 0.890322V2.63338C12.6772 2.8695 12.771 3.09596 12.938 3.26293C13.1049 3.4299 13.3314 3.5237 13.5675 3.5237ZM26.2447 11.682H24.5017C24.2655 11.682 24.0391 11.7758 23.8721 11.9428C23.7051 12.1098 23.6113 12.3362 23.6113 12.5723C23.6113 12.8085 23.7051 13.0349 23.8721 13.2019C24.0391 13.3689 24.2655 13.4627 24.5017 13.4627H26.2447C26.4808 13.4627 26.7073 13.3689 26.8743 13.2019C27.0412 13.0349 27.135 12.8085 27.135 12.5723C27.135 12.3362 27.0412 12.1098 26.8743 11.9428C26.7073 11.7758 26.4808 11.682 26.2447 11.682ZM2.63239 11.682H0.890322C0.654194 11.682 0.427737 11.7758 0.260769 11.9428C0.0938015 12.1098 0 12.3362 0 12.5723C0 12.8085 0.0938015 13.0349 0.260769 13.2019C0.427737 13.3689 0.654194 13.4627 0.890322 13.4627H2.63337C2.8695 13.4625 3.09591 13.3686 3.26278 13.2015C3.42966 13.0345 3.52333 12.808 3.5232 12.5718C3.52307 12.3357 3.42914 12.1093 3.26208 11.9424C3.09502 11.7756 2.86851 11.6819 2.63239 11.682ZM5.90976 6.17389C5.99225 6.2571 6.09041 6.32315 6.19857 6.36822C6.30673 6.41329 6.42274 6.4365 6.53991 6.4365C6.65708 6.4365 6.77309 6.41329 6.88125 6.36822C6.98941 6.32315 7.08756 6.2571 7.17006 6.17389C7.25285 6.09136 7.31854 5.99331 7.36336 5.88534C7.40819 5.77738 7.43126 5.66163 7.43126 5.54473C7.43126 5.42783 7.40819 5.31208 7.36336 5.20412C7.31854 5.09615 7.25285 4.9981 7.17006 4.91557L5.93647 3.68198C5.85451 3.59636 5.75628 3.52797 5.64754 3.48082C5.5388 3.43366 5.42173 3.40869 5.30322 3.40738C5.1847 3.40606 5.06712 3.42842 4.95735 3.47315C4.84759 3.51788 4.74787 3.58407 4.66403 3.66785C4.58018 3.75162 4.51391 3.85129 4.4691 3.96102C4.42429 4.07075 4.40183 4.18832 4.40306 4.30683C4.40428 4.42535 4.42915 4.54243 4.47622 4.65121C4.52329 4.75999 4.5916 4.85827 4.67716 4.9403L5.90976 6.17389ZM21.1986 3.68198L19.966 4.91458C19.8406 5.03877 19.755 5.19751 19.7202 5.37053C19.6854 5.54355 19.7029 5.72301 19.7705 5.88604C19.8381 6.04906 19.9528 6.18825 20.0998 6.28586C20.2468 6.38346 20.4196 6.43506 20.5961 6.43406C20.7132 6.43425 20.8291 6.41127 20.9373 6.36645C21.0454 6.32163 21.1436 6.25585 21.2263 6.1729L22.4589 4.9403C22.8071 4.59307 22.8071 4.0292 22.4589 3.68198C22.1106 3.33475 21.5458 3.33475 21.1986 3.68198ZM13.5675 6.2738C9.09118 6.26688 5.44976 9.90731 5.44976 14.3916C5.44976 16.5501 6.29655 18.5138 7.6815 19.963C8.60051 20.9255 9.1713 22.167 9.1713 23.4976V24.2563C9.1713 24.5187 9.27553 24.7703 9.46105 24.9558C9.64657 25.1414 9.89819 25.2456 10.1606 25.2456H16.9745C17.2368 25.2456 17.4885 25.1414 17.674 24.9558C17.8595 24.7703 17.9637 24.5187 17.9637 24.2563V23.4976C17.9637 22.167 18.5335 20.9255 19.4535 19.963C20.8887 18.4635 21.6883 16.4671 21.6853 14.3916C21.6853 9.90731 18.0439 6.26589 13.5675 6.2738ZM12.7712 11.2161C12.1957 11.3633 11.6708 11.6634 11.2518 12.0844C10.8328 12.5055 10.5354 13.0319 10.391 13.6081C10.3346 13.8373 10.1897 14.0347 9.98794 14.1573C9.78621 14.2799 9.54415 14.3175 9.31474 14.262C9.08546 14.2058 8.88788 14.0608 8.76545 13.859C8.64301 13.6572 8.60575 13.415 8.66184 13.1857C8.87857 12.2919 9.3361 11.4747 9.98472 10.8228C10.6333 10.1708 11.4482 9.70914 12.3408 9.48787C12.566 9.44196 12.8002 9.48477 12.9945 9.60737C13.1888 9.72997 13.3283 9.92288 13.3838 10.1458C13.4393 10.3688 13.4066 10.6046 13.2925 10.804C13.1783 11.0034 12.9916 11.1511 12.7712 11.2161Z" fill="#EDF6FF"/>
</svg>
