<svg width="40" height="40" viewBox="0 0 40 40" fill="none" xmlns="http://www.w3.org/2000/svg">
<path d="M13.75 18.4375C12.887 18.4375 12.1875 19.137 12.1875 20C12.1875 20.863 12.887 21.5625 13.75 21.5625C14.613 21.5625 15.3125 20.863 15.3125 20C15.3125 19.137 14.613 18.4375 13.75 18.4375ZM20 18.4375C19.137 18.4375 18.4375 19.137 18.4375 20C18.4375 20.863 19.137 21.5625 20 21.5625C20.863 21.5625 21.5625 20.863 21.5625 20C21.5625 19.137 20.863 18.4375 20 18.4375ZM40 15.3125V12.1875H34.0625V10.625C34.0625 8.04031 31.9597 5.9375 29.375 5.9375H27.8125V0H24.6875V5.9375H21.5625V0H18.4375V5.9375H15.3125V0H12.1875V5.9375H10.625C8.04031 5.9375 5.9375 8.04031 5.9375 10.625V12.1875H0V15.3125H5.9375V18.4375H0V21.5625H5.9375V24.6875H0V27.8125H5.9375V29.375C5.9375 31.9597 8.04031 34.0625 10.625 34.0625H12.1875V40H15.3125V34.0625H18.4375V40H21.5625V34.0625H24.6875V40H27.8125V34.0625H29.375C31.9597 34.0625 34.0625 31.9597 34.0625 29.375V27.8125H40V24.6875H34.0625V21.5625H40V18.4375H34.0625V15.3125H40ZM30.9375 29.375C30.9375 30.2366 30.2366 30.9375 29.375 30.9375H10.625C9.76344 30.9375 9.0625 30.2366 9.0625 29.375V10.625C9.0625 9.76344 9.76344 9.0625 10.625 9.0625H29.375C30.2366 9.0625 30.9375 9.76344 30.9375 10.625V29.375ZM26.25 18.4375C25.387 18.4375 24.6875 19.137 24.6875 20C24.6875 20.863 25.387 21.5625 26.25 21.5625C27.113 21.5625 27.8125 20.863 27.8125 20C27.8125 19.137 27.113 18.4375 26.25 18.4375Z" fill="#EDF6FF"/>
</svg>
