<svg width="40" height="40" viewBox="0 0 40 40" fill="none" xmlns="http://www.w3.org/2000/svg">
<path d="M29.0711 1H11.4356C9.13354 1 7.25 2.88354 7.25 5.18564V35.2944C7.25 37.5965 9.13354 39.48 11.4356 39.48H29.0572C31.3593 39.48 33.2428 37.5965 33.2428 35.2944V5.18564C33.2568 2.88354 31.3732 1 29.0711 1ZM30.4664 35.2944C30.4664 36.0617 29.8385 36.6896 29.0711 36.6896H11.4356C10.6683 36.6896 10.0404 36.0617 10.0404 35.2944V5.18564C10.0404 4.41827 10.6683 3.79043 11.4356 3.79043H13.5006C14.1982 4.99031 15.4818 5.81349 16.9746 5.81349H23.5182C25.0111 5.81349 26.2947 4.99031 26.9923 3.79043H29.0572C29.8246 3.79043 30.4524 4.41827 30.4524 5.18564V35.2944H30.4664ZM27.2434 31.4715V32.2249C27.2434 33.0481 26.5737 33.7178 25.7505 33.7178H15.3283C14.5051 33.7178 13.8354 33.0481 13.8354 32.2249V31.4715C13.8354 30.6483 14.5051 29.9786 15.3283 29.9786H25.7505C26.5737 29.9786 27.2434 30.6483 27.2434 31.4715Z" fill="#EDF6FF"/>
</svg>
