<svg width="100" height="100" viewBox="0 0 100 100" fill="none" xmlns="http://www.w3.org/2000/svg">
<g clip-path="url(#clip0_43_22)">
<path d="M25.0038 34.0376C27.4815 34.0376 29.4903 36.0458 29.4903 38.5237C29.4903 41.002 27.4815 43.0101 25.0038 43.0101H4.4866C2.00864 43.0101 0 41.002 0 38.5237C0 36.0458 2.00864 34.0376 4.48643 34.0376H25.0038Z" fill="#708FB5"/>
<path d="M22.9419 45.7934C25.42 45.7934 27.4287 47.8019 27.4287 50.2798C27.4287 52.7578 25.42 54.7663 22.9419 54.7663H11.2643C10.2683 54.7698 9.45306 55.5577 9.41493 56.5437V62.3911C9.41493 64.8687 7.40629 66.8772 4.92898 66.8772C2.45102 66.8772 0.442383 64.8687 0.442383 62.3911V52.4398C0.442383 48.7693 3.41794 45.7932 7.08867 45.7932L22.9419 45.7934ZM31.528 37.5782C31.528 35.1006 33.5367 33.0918 36.0145 33.0918C38.4926 33.0918 40.5009 35.1006 40.5009 37.5782V62.4224C40.5009 64.9004 38.4927 66.9089 36.0145 66.9089C33.5368 66.9089 31.528 64.9002 31.528 62.4224V37.5782ZM86.7461 58.0103L88.549 58.0058C88.726 58.0056 88.8956 57.9353 89.0207 57.8101C89.1458 57.685 89.2161 57.5154 89.2163 57.3384C89.219 57.2508 89.2029 57.1636 89.1691 57.0827L82.4651 45.8173L71.992 63.9519C71.183 65.3542 69.7302 66.1539 68.2226 66.1942C68.1776 66.2005 68.1323 66.2037 68.0869 66.2037H51.0426C47.3717 66.2037 44.396 63.2278 44.396 59.5572V37.5786C44.396 35.1008 46.4048 33.092 48.8825 33.092C51.3599 33.092 53.3689 35.1008 53.3689 37.5784V55.381C53.3721 56.3775 54.1599 57.1932 55.1465 57.2303H64.6809C64.9262 57.1549 65.6761 56.9 65.9046 56.545L77.8803 35.814C78.7891 34.2537 80.4794 33.2033 82.4142 33.2033C84.35 33.2033 86.0407 34.2553 86.9454 35.8189L98.615 55.4112C99.5153 56.5817 100.002 58.0174 100 59.4941C100 63.1997 96.9962 66.2034 93.2912 66.2034H79.6886C77.4252 66.2034 75.592 64.369 75.592 62.1063C75.592 59.8443 77.4254 58.0103 79.6886 58.0103H86.7461Z" fill="#708FB5"/>
</g>
<defs>
<clipPath id="clip0_43_22">
<rect width="100" height="100" fill="white"/>
</clipPath>
</defs>
</svg>
