<svg width="100" height="100" viewBox="0 0 100 100" fill="none" xmlns="http://www.w3.org/2000/svg">
<g clip-path="url(#clip0_43_16)">
<path d="M85.0833 30.604V68.854H91.9625V30.604H85.0833ZM0 31.1457V38.3832H7.2375V31.1415L0 31.1457ZM40.75 32.6123V57.8332C40.75 59.9707 40.9333 61.7707 41.2917 63.2165C41.6542 64.6332 42.2708 65.7915 43.125 66.6665C43.9708 67.5415 45.1042 68.1623 46.4708 68.5457C47.8625 68.9332 49.6125 69.1123 51.7 69.1123H52.6V62.7248C51.6 62.7248 50.7458 62.6748 50.1292 62.5707C49.5236 62.5133 48.9531 62.2603 48.5042 61.8498C48.1091 61.4121 47.8576 60.8639 47.7833 60.279C47.6681 59.4425 47.6165 58.5984 47.6292 57.754V48.6623H52.6V42.7623H47.6292V32.6123H40.75ZM26.1458 42.2457C24.4958 42.2457 22.9792 42.579 21.6375 43.2498C20.275 43.9207 19.1375 44.8498 18.2125 46.0332L17.85 46.5207V42.7623H11.075V68.829H17.9042V55.4373C17.9792 52.9873 18.5708 51.1873 19.7083 50.0248C20.9167 48.7873 22.3833 48.1707 24.0583 48.1707C26.0417 48.1707 27.5625 48.7915 28.5667 49.9748C29.5458 51.1582 30.0625 52.8332 30.0625 54.9748V68.8248H36.9917V54.0415C37.0167 50.3332 36.0375 47.3957 34.1333 45.3332C32.225 43.2707 29.55 42.2415 26.1458 42.2415V42.2457ZM68.0833 42.2707C66.3013 42.2636 64.5353 42.6081 62.8865 43.2844C61.2378 43.9608 59.7387 44.9558 58.475 46.2123C57.2667 47.4207 56.2875 48.8665 55.5917 50.5165C54.8739 52.1917 54.5134 53.9983 54.5333 55.8207C54.5333 57.704 54.8667 59.479 55.5375 61.129C56.2083 62.7748 57.1625 64.2207 58.3458 65.429C59.5292 66.6373 61 67.6207 62.7 68.3165C64.4 69.0373 66.2833 69.3998 68.2917 69.3998C74.1125 69.3998 77.7167 66.7457 79.8833 64.2748L74.9375 60.5082C73.9042 61.7457 71.4333 63.4207 68.3417 63.4207C66.4083 63.4207 64.8125 62.9832 63.6 62.0832C62.3866 61.1889 61.5149 59.907 61.1292 58.4498L61.05 58.2165H81.5292V55.7707C81.5292 53.8915 81.1958 52.1373 80.55 50.4915C79.901 48.9014 78.9677 47.4429 77.7958 46.1873C76.593 44.9436 75.146 43.962 73.5458 43.304C71.8129 42.5962 69.9551 42.2448 68.0833 42.2707ZM0.179167 42.7623V68.829H7.05833V42.7623H0.179167ZM68.0042 48.1207C72.7208 48.1207 74.9375 51.4415 74.9375 53.3498L61.1042 53.3748C61.1042 51.4665 63.2917 48.1457 68.0042 48.1207ZM97.475 64.0123C96.8053 64.0123 96.1631 64.2784 95.6896 64.7519C95.216 65.2254 94.95 65.8677 94.95 66.5373C94.95 67.207 95.216 67.8493 95.6896 68.3228C96.1631 68.7963 96.8053 69.0623 97.475 69.0623C98.1447 69.0623 98.7869 68.7963 99.2604 68.3228C99.734 67.8493 100 67.207 100 66.5373C100 65.8677 99.734 65.2254 99.2604 64.7519C98.7869 64.2784 98.1447 64.0123 97.475 64.0123ZM97.4417 64.4498C97.4444 64.4498 97.4472 64.4498 97.45 64.4498C97.7239 64.4498 97.9952 64.5039 98.2482 64.6088C98.5013 64.7138 98.7311 64.8676 98.9246 65.0615C99.1181 65.2554 99.2715 65.4856 99.3759 65.7388C99.4804 65.992 99.5339 66.2634 99.5333 66.5373C99.5333 66.8109 99.4794 67.0818 99.3747 67.3346C99.27 67.5874 99.1166 67.817 98.9231 68.0105C98.7297 68.2039 98.5 68.3574 98.2473 68.4621C97.9945 68.5668 97.7236 68.6207 97.45 68.6207C96.8975 68.6207 96.3676 68.4012 95.9769 68.0105C95.5862 67.6198 95.3667 67.0899 95.3667 66.5373C95.3667 65.9862 95.585 65.4576 95.9739 65.0671C96.3628 64.6767 96.8906 64.452 97.4417 64.4498ZM96.4708 65.0957V68.0082H97.0125V66.8207H97.4L98.1208 68.0082H98.6875L97.9375 66.7707C98.1237 66.7531 98.2978 66.6705 98.4292 66.5373C98.5542 66.4123 98.6375 66.229 98.6375 65.9707C98.6375 65.6873 98.5542 65.4832 98.375 65.329C98.2208 65.1707 97.9375 65.0957 97.6042 65.0957H96.4708ZM97.0125 65.5082H97.6542C97.7333 65.5082 97.8083 65.5332 97.8875 65.5582C97.9538 65.5795 98.0091 65.6258 98.0417 65.6873C98.0958 65.7415 98.0917 65.8165 98.0917 65.9207C98.0928 65.9999 98.0757 66.0783 98.0417 66.1498C97.9969 66.2003 97.945 66.2438 97.8875 66.279C97.8083 66.304 97.7333 66.3332 97.6542 66.3332H97.0125V65.5082Z" fill="#708FB5"/>
</g>
<defs>
<clipPath id="clip0_43_16">
<rect width="100" height="100" fill="white"/>
</clipPath>
</defs>
</svg>
