<svg width="100" height="100" viewBox="0 0 100 100" fill="none" xmlns="http://www.w3.org/2000/svg">
<g clip-path="url(#clip0_43_12)">
<path d="M58.0125 59.0626C58.0125 59.2542 58.075 59.3626 58.1833 59.3626C58.2712 59.3507 58.3544 59.3162 58.425 59.2626L89.5917 39.0376C90.1181 38.6688 90.7491 38.479 91.3917 38.4959H98.2417C99.2917 38.4959 100 39.1959 100 40.2459V53.3251C100 54.9084 99.65 55.8251 98.25 56.6626L89.9417 61.6626C89.859 61.7199 89.7627 61.7544 89.6625 61.7626C89.5625 61.7626 89.4625 61.6834 89.4625 61.3959V46.1334C89.4625 45.9542 89.4125 45.8376 89.2917 45.8376C89.2033 45.8474 89.1195 45.8821 89.05 45.9376L66.275 60.7334C65.7594 61.0843 65.1487 61.269 64.525 61.2626H49.425C48.3667 61.2626 47.6667 60.5626 47.6667 59.5042V40.6542C47.6667 40.5167 47.6042 40.3876 47.4833 40.3876C47.3967 40.3992 47.3147 40.4337 47.2458 40.4876L32.2167 49.5001C32.0667 49.6001 32.025 49.6709 32.025 49.7417C32.025 49.8001 32.0583 49.8626 32.1583 49.9709L42.8958 60.7001C43.0375 60.8417 43.1375 60.9501 43.1375 61.0709C43.1375 61.1709 42.975 61.2501 42.7875 61.2501H33.0833C32.3208 61.2501 31.7333 61.1417 31.3208 60.7292L24.8125 54.2292C24.7879 54.1997 24.7574 54.1755 24.7229 54.1583C24.6885 54.1411 24.6509 54.1312 24.6125 54.1292C24.5417 54.1332 24.473 54.1547 24.4125 54.1917L13.5375 60.7334C13.0175 61.0827 12.4012 61.2605 11.775 61.2417H1.77083C0.7 61.2501 0 60.5417 0 59.4959V46.6626C0 45.0792 0.35 44.1626 1.75833 43.3292L10.125 38.3001C10.1899 38.2588 10.2648 38.2358 10.3417 38.2334C10.475 38.2334 10.5417 38.3584 10.5417 38.6501V55.8334C10.5417 56.0126 10.5833 56.0959 10.7125 56.0959C10.8023 56.0819 10.8878 56.0477 10.9625 55.9959L39.1958 39.0001C39.7432 38.6316 40.3952 38.4504 41.0542 38.4834H56.2542C57.3042 38.4834 58.0125 39.1834 58.0125 40.2334L58.0042 59.0584L58.0125 59.0626Z" fill="#708FB5"/>
</g>
<defs>
<clipPath id="clip0_43_12">
<rect width="100" height="100" fill="white"/>
</clipPath>
</defs>
</svg>
