<svg width="100" height="100" viewBox="0 0 100 100" fill="none" xmlns="http://www.w3.org/2000/svg">
<g clip-path="url(#clip0_43_18)">
<path d="M21.4375 47.1291H28.25C28.9861 47.1247 29.6942 47.4111 30.2202 47.9261C30.7461 48.4412 31.0474 49.1431 31.0583 49.8791V56.1666H20.8708C20.4214 56.1689 19.9894 55.993 19.6692 55.6776C19.3491 55.3621 19.1669 54.9327 19.1625 54.4833V52.3C19.168 51.8815 19.3389 51.4822 19.638 51.1894C19.937 50.8966 20.3398 50.7341 20.7583 50.7375H26.4L25.8 52.0125H21.6417C21.4625 52.0125 21.2583 52.1541 21.2583 52.35V54.0666C21.2583 54.2625 21.4625 54.4083 21.6417 54.4083H28.85V50.2833C28.85 49.4875 28.1458 48.875 27.3625 48.875H20.6042L21.4375 47.1291ZM77.3833 43.85V56.1791H67.4542C67.0054 56.1814 66.574 56.0061 66.254 55.6915C65.934 55.377 65.7513 54.9487 65.7458 54.5V49.875C65.7579 49.1389 66.0602 48.4374 66.5869 47.9232C67.1137 47.4089 67.8222 47.1235 68.5583 47.1291H74.2125L73.3792 48.8875H69.4292C68.6458 48.8875 67.9417 49.5 67.9417 50.2916V54.0833C67.9417 54.275 68.1458 54.4166 68.325 54.4166H75.175V43.85H77.3833ZM42.5 56.1791H44.6958V49.8875C44.6838 49.1521 44.382 48.4513 43.8562 47.9372C43.3304 47.423 42.6229 47.1371 41.8875 47.1416H37.2167L36.3833 48.9H41.0125C41.7958 48.9 42.5 49.5125 42.5 50.3041V56.1791ZM33.3542 43.8458V56.1791H35.55V43.8458H33.3542ZM15.0208 56.1791H17.2167V49.8875C17.2046 49.1521 16.9029 48.4513 16.377 47.9372C15.8512 47.423 15.1437 47.1371 14.4083 47.1416H0V56.1791H2.19167V49.225C2.19167 49.0291 2.4 48.8875 2.57917 48.8875H7.12083C7.3 48.8875 7.50417 49.0291 7.50417 49.225V56.1791H9.7V49.225C9.7 49.0291 9.90417 48.8875 10.0833 48.8875H13.5333C14.3167 48.8875 15.0208 49.5 15.0208 50.2916V56.1791ZM88.8542 47.1291H83.3333C82.5972 47.1247 81.8891 47.4111 81.3632 47.9261C80.8372 48.4412 80.536 49.1431 80.525 49.8791V56.1666H82.7208V50.2916C82.7208 49.5 83.425 48.8875 84.2083 48.8875H88.0167L88.8542 47.1291ZM60.7167 47.1291C61.4535 47.1236 62.1627 47.4095 62.6895 47.9247C63.2164 48.4398 63.5182 49.1424 63.5292 49.8791V56.1666H61.3333V50.2916C61.3333 49.5 60.625 48.8875 59.8458 48.8875H54.5625V56.1791H52.3667V47.1416C55.1375 47.1416 57.9208 47.1291 60.7167 47.1291ZM47.425 47.7L49.6208 46.425V56.1666H47.4292L47.425 47.7ZM49.6333 45.1625V43.8208H47.4417V46.425L49.6333 45.1625ZM90.3917 47.1291H97.1917C97.9278 47.1247 98.6359 47.4111 99.1618 47.9261C99.6878 48.4412 99.989 49.1431 100 49.8791V56.1666H89.8125C89.3631 56.1689 88.931 55.993 88.6109 55.6776C88.2908 55.3621 88.1086 54.9327 88.1042 54.4833V52.3C88.1097 51.8815 88.2806 51.4822 88.5797 51.1894C88.8787 50.8966 89.2815 50.7341 89.7 50.7375H95.3417L94.7417 52.0125H90.5833C90.4042 52.0125 90.2 52.1541 90.2 52.35V54.0666C90.2 54.2625 90.4042 54.4083 90.5833 54.4083H97.7917V50.2833C97.7917 49.4875 97.0875 48.875 96.3042 48.875H89.5458L90.3917 47.1291Z" fill="#708FB5"/>
</g>
<defs>
<clipPath id="clip0_43_18">
<rect width="100" height="100" fill="white"/>
</clipPath>
</defs>
</svg>
