<svg width="100" height="100" viewBox="0 0 100 100" fill="none" xmlns="http://www.w3.org/2000/svg">
<g clip-path="url(#clip0_43_14)">
<path d="M69.125 38.9501V61.0501H72.4417V38.9501H69.125ZM33.7208 38.5751C27.2625 38.5751 22.2542 43.2709 22.2542 50.0001C22.2542 57.0292 27.2625 61.4251 33.7208 61.4251C40.1792 61.4251 45.1958 57.0292 45.1833 50.0001C45.1956 48.4931 44.9072 46.9989 44.3351 45.6047C43.7629 44.2106 42.9185 42.9445 41.8511 41.8807C40.7838 40.8168 39.515 39.9765 38.1189 39.4089C36.7229 38.8413 35.2277 38.5578 33.7208 38.5751ZM41.875 50.0001C41.875 54.9792 38.225 58.2792 33.7208 58.2792C29.2125 58.2792 25.5625 54.9792 25.5625 50.0001C25.5625 45.1084 29.2125 41.7209 33.7208 41.7209C38.2208 41.7209 41.875 45.1084 41.875 50.0001ZM0 38.2334V61.0501H3.38333V45.9709L20.9583 61.7626V57.0334L0 38.2334ZM47.675 50.0001L59.975 61.0501H64.9083L52.5917 50.0001L64.9083 38.9501H59.975L47.675 50.0001ZM100 61.0501H96.3542L93.6875 56.1542H81.6125L78.9458 61.0501H75.3L79.7167 52.8917H91.9542L85.85 41.5584L87.65 38.2334L100 61.0501Z" fill="#708FB5"/>
</g>
<defs>
<clipPath id="clip0_43_14">
<rect width="100" height="100" fill="white"/>
</clipPath>
</defs>
</svg>
