<svg width="100" height="100" viewBox="0 0 100 100" fill="none" xmlns="http://www.w3.org/2000/svg">
<g clip-path="url(#clip0_43_20)">
<path d="M11.875 53.2748C6.82917 53.2248 3.575 50.8331 3.575 47.1706C3.575 43.5081 6.82917 41.1206 11.8667 41.0665C16.9083 41.1206 20.1667 43.5165 20.1667 47.1706C20.1667 50.8248 16.9083 53.2248 11.875 53.2748ZM12.0167 38.1165H11.7125C4.81667 38.229 0 41.9498 0 47.1665C0 52.3831 4.81667 56.1123 11.7125 56.2248H12.0167C18.9125 56.1123 23.7292 52.3873 23.7292 47.1665C23.7292 41.9456 18.9125 38.229 12.0167 38.1165ZM88.1417 53.2748C83.1 53.2248 79.8417 50.829 79.8417 47.1706C79.8417 43.5123 83.1 41.1206 88.1375 41.0665C93.1792 41.1206 96.4333 43.5165 96.4333 47.1706C96.4333 50.8248 93.1792 53.2248 88.1417 53.2748ZM88.2875 38.1165H87.9833C81.0875 38.229 76.2708 41.9498 76.2708 47.1706C76.2708 52.3915 81.0875 56.1165 87.9792 56.229H88.2875C95.1833 56.1165 100 52.3915 100 47.1665C100 41.9415 95.1833 38.229 88.2875 38.1165ZM62.7625 53.2748C57.7208 53.2248 54.4708 50.829 54.4708 47.1706C54.4708 43.5123 57.7208 41.1206 62.7625 41.0665C67.8042 41.1206 71.0583 43.5165 71.0583 47.1706C71.0583 50.8248 67.8042 53.2248 62.7667 53.2748H62.7625ZM62.9125 38.1165H62.6083C59.3208 38.1706 56.5083 39.0415 54.4625 40.5081V38.9665H50.8917V61.8831H54.4625V53.8373C56.5042 55.2998 59.3208 56.1706 62.6042 56.229H62.9125C69.8083 56.1165 74.6208 52.3915 74.6208 47.1706C74.6208 41.9498 69.8083 38.229 62.9125 38.1165ZM37.3125 53.2748C32.2708 53.2248 29.0208 50.829 29.0208 47.1706C29.0208 43.5123 32.2708 41.1206 37.3125 41.0665C42.3542 41.1206 45.6083 43.5165 45.6083 47.1706C45.6083 50.8248 42.3542 53.2248 37.3167 53.2748H37.3125ZM37.4667 38.1165H37.1667C33.8792 38.1706 31.0667 39.0415 29.0208 40.5081V38.9665H25.4542V61.8831H29.0208V53.8373C31.0667 55.2998 33.8792 56.1706 37.1667 56.229C37.2681 56.23 37.3694 56.23 37.4708 56.229C44.3667 56.1165 49.1833 52.3915 49.1833 47.1706C49.1833 41.9498 44.3667 38.229 37.475 38.1165H37.4667Z" fill="#708FB5"/>
</g>
<defs>
<clipPath id="clip0_43_20">
<rect width="100" height="100" fill="white"/>
</clipPath>
</defs>
</svg>
