<svg width="100" height="100" viewBox="0 0 100 100" fill="none" xmlns="http://www.w3.org/2000/svg">
<path d="M0 56.6668L1.85417 53.8418H12.5958C13.2042 53.8418 13.6042 53.4668 13.6042 52.8835V51.2502H4.36667C1.61667 51.2502 0.395833 50.0918 0.395833 47.521V46.4127C0.395833 44.496 1.5875 43.3377 3.46667 43.3377H3.675V47.471C3.675 48.0543 4.075 48.4293 4.68333 48.4293H13.6292C15.6708 48.4293 16.8833 49.5877 16.8833 51.4793V52.9377C16.8833 55.4377 15.5917 56.671 12.9167 56.671L0 56.6668ZM64.3875 53.7918H72.6958C74.0708 53.7918 74.9458 52.9877 74.9458 51.7252V48.2752C74.9458 47.0127 74.0708 46.2085 72.6958 46.2085H64.3875V53.7918ZM61.0542 56.6668V43.3335H72.7792C76.2708 43.3335 78.2792 45.2502 78.2792 48.4252V51.5752C78.2792 54.7502 76.2708 56.6668 72.7792 56.6668H61.0542ZM44.8917 53.7918H51.9083C53.175 53.7918 53.9958 53.0377 53.9958 51.8543V48.146C53.9958 46.9627 53.175 46.2085 51.9083 46.2085H44.8917C43.625 46.2085 42.8042 46.9627 42.8042 48.146V51.8543C42.8042 53.0377 43.625 53.7918 44.8917 53.7918ZM51.9875 56.6668H44.8125C41.425 56.6668 39.4667 54.8002 39.4667 51.7002V48.3002C39.4667 45.2002 41.425 43.3335 44.8125 43.3335H51.9875C55.375 43.3335 57.3333 45.2002 57.3333 48.3002V51.7002C57.3333 54.8002 55.375 56.6668 51.9875 56.6668ZM79.65 56.6668L87.5083 43.3335H92.1417L100 56.6668H96.1875L94.8375 54.3752H88.1417L86.3458 51.6502L83.3792 56.6668H79.65ZM86.425 51.5002H93.1458L89.7833 45.8293L86.425 51.5002ZM6.95833 46.1043L5.05417 43.3335H16.5667L14.7125 46.1043H6.95833ZM20.5542 56.6668V43.3335H23.8875V48.5252H28.3083L34.05 43.3335H38.4708L31.1667 49.9585L38.6042 56.6668H33.9167L28.1708 51.4002H23.8875V56.6668H20.5542Z" fill="#708FB5"/>
</svg>
