<svg width="100" height="100" viewBox="0 0 100 100" fill="none" xmlns="http://www.w3.org/2000/svg">
<path d="M53.2297 27.7297C53.3914 27.7191 53.5535 27.7443 53.7043 27.8034C53.8551 27.8625 53.9908 27.9541 54.1016 28.0716C54.2125 28.1891 54.2957 28.3296 54.3453 28.4828C54.395 28.6361 54.4098 28.7985 54.3887 28.9581L54.3998 29.9702C54.4035 32.1448 54.3924 34.3157 54.4072 36.4866C54.4219 38.0781 54.7025 38.3825 56.2527 38.5768C60.121 38.9303 64.0162 38.8738 67.8724 38.4081C69.8704 38.2703 71.8319 37.807 73.6785 37.0367C74.1336 36.8977 74.5182 36.5916 74.7541 36.1808C74.99 35.77 75.0594 35.2853 74.9483 34.8254C74.2137 29.7493 71.9286 25.0195 68.4017 21.2749C64.8748 17.5303 60.276 14.9514 55.2266 13.8865C50.7435 12.9183 46.0765 13.2259 41.7614 14.7739C37.9724 16.0848 34.5602 18.2894 31.8175 21.1986C27.5955 25.3704 25.1538 30.9981 25 36.912C25.0799 44.0269 27.021 50.9988 30.6327 57.1432C31.0737 58.0416 31.7797 58.7853 32.6567 59.2753C33.5336 59.7653 34.54 59.9783 35.5418 59.8861C37.9521 59.8274 40.3661 59.8714 42.7764 59.8714V59.8604H50.4687C51.3915 59.8604 52.1187 60.0805 52.1113 61.2246C52.0928 63.8869 52.1113 66.5418 52.1002 69.2041C52.0928 70.0109 51.864 70.7883 50.8969 70.7956C49.9225 70.803 49.6899 70.0292 49.6788 69.2188C49.6604 67.9463 49.6788 66.6738 49.6788 65.4014C49.6788 63.7475 49.4094 63.3588 47.7484 63.0545C44.8802 62.5901 41.9573 62.5653 39.0816 62.9811C38.0651 63.063 37.0683 63.3057 36.1287 63.6999C35.3462 64.0666 35.0362 64.5983 35.4163 65.4124C35.8113 66.2595 36.1767 67.1249 36.6455 67.9353C40.4366 74.274 44.6618 80.3463 49.2913 86.1093C49.8597 86.839 50.2989 86.8537 50.8821 86.1459C52.1703 84.5838 53.5213 83.0693 54.7947 81.4961C59.7889 75.4877 64.2091 69.0302 67.9979 62.2074C70.5272 57.7701 72.3852 52.9871 73.5124 48.0122C73.7624 47.375 73.8599 46.6888 73.7972 46.0078C73.7344 45.3268 73.5132 44.6696 73.1509 44.0881C72.7886 43.5067 72.2953 43.0168 71.7097 42.6573C71.1242 42.2978 70.4625 42.0784 69.777 42.0165C67.754 41.5717 65.6842 41.3722 63.6128 41.4225C60.2576 41.4005 56.9024 41.4115 53.5471 41.4151C52.6428 41.4151 51.971 41.1584 51.971 40.1023C51.971 36.3986 51.9636 32.6875 51.9784 28.9801C51.9784 28.188 52.3623 27.6967 53.2297 27.7297Z" fill="#708FB5"/>
</svg>
