<svg width="140" height="140" viewBox="0 0 140 140" fill="none" xmlns="http://www.w3.org/2000/svg">
<g filter="url(#filter0_f_9_1592)">
<circle cx="70" cy="70" r="50" fill="#1B86F8"/>
</g>
<rect x="19.667" y="20" width="100" height="100" rx="50" fill="#EDF6FF"/>
<rect x="19.667" y="20" width="100" height="100" rx="50" fill="url(#paint0_linear_9_1592)"/>
<rect x="13.667" y="14" width="112" height="112" rx="56" stroke="#EDF6FF" stroke-opacity="0.1" stroke-width="12"/>
<path d="M56.687 84.9C54.3403 84.9 52.2603 84.2733 50.447 83.02C48.6337 81.74 47.207 79.98 46.167 77.74C45.1537 75.4733 44.647 72.8867 44.647 69.98C44.647 67.0733 45.1537 64.5267 46.167 62.34C47.1803 60.1267 48.5937 58.4067 50.407 57.18C52.247 55.9267 54.3403 55.3 56.687 55.3C59.0603 55.3 61.1537 55.9267 62.967 57.18C64.7803 58.4067 66.1937 60.1267 67.207 62.34C68.247 64.5267 68.767 67.0733 68.767 69.98C68.767 72.9133 68.247 75.5 67.207 77.74C66.1937 79.98 64.7803 81.74 62.967 83.02C61.1537 84.2733 59.0603 84.9 56.687 84.9ZM56.687 80.54C58.1537 80.54 59.367 80.0733 60.327 79.14C61.287 78.2067 62.007 76.94 62.487 75.34C62.9937 73.74 63.247 71.94 63.247 69.94C63.247 67.94 63.007 66.1667 62.527 64.62C62.047 63.0733 61.3137 61.86 60.327 60.98C59.367 60.1 58.1537 59.66 56.687 59.66C55.247 59.66 54.0337 60.1133 53.047 61.02C52.087 61.9 51.367 63.1133 50.887 64.66C50.407 66.2067 50.167 67.9667 50.167 69.94C50.167 71.9667 50.407 73.78 50.887 75.38C51.367 76.98 52.1003 78.2467 53.087 79.18C54.0737 80.0867 55.2737 80.54 56.687 80.54ZM83.7432 84.9C80.0899 84.9 77.2632 83.6733 75.2632 81.22C73.2899 78.74 72.3032 75.22 72.3032 70.66C72.3032 67.46 72.7699 64.7133 73.7032 62.42C74.6632 60.1267 76.0232 58.3667 77.7832 57.14C79.5699 55.9133 81.6632 55.3 84.0632 55.3C86.7566 55.3 88.9566 56.0333 90.6632 57.5C92.3699 58.94 93.4232 60.9533 93.8232 63.54H88.5432C88.3832 62.2067 87.8899 61.1933 87.0632 60.5C86.2632 59.78 85.2499 59.42 84.0232 59.42C81.9432 59.42 80.3699 60.3133 79.3032 62.1C78.2632 63.8867 77.7432 66.6333 77.7432 70.34V72.94L76.6232 72.58C76.8899 71.3 77.4099 70.1933 78.1832 69.26C78.9566 68.3267 79.9299 67.6067 81.1032 67.1C82.2766 66.5933 83.5699 66.34 84.9832 66.34C86.8232 66.34 88.4366 66.7267 89.8232 67.5C91.2099 68.2733 92.2899 69.3533 93.0632 70.74C93.8632 72.1 94.2632 73.7133 94.2632 75.58C94.2632 77.4467 93.8232 79.0867 92.9432 80.5C92.0632 81.8867 90.8366 82.9667 89.2632 83.74C87.6899 84.5133 85.8499 84.9 83.7432 84.9ZM83.4632 80.78C84.9832 80.78 86.2366 80.3267 87.2232 79.42C88.2099 78.5133 88.7032 77.2333 88.7032 75.58C88.7032 73.9 88.2099 72.62 87.2232 71.74C86.2366 70.8333 84.9566 70.38 83.3832 70.38C81.8366 70.38 80.5299 70.82 79.4632 71.7C78.4232 72.5533 77.9032 73.7933 77.9032 75.42C77.9032 76.5133 78.1566 77.4733 78.6632 78.3C79.1699 79.1 79.8366 79.7133 80.6632 80.14C81.5166 80.5667 82.4499 80.78 83.4632 80.78Z" fill="#002556"/>
<defs>
<filter id="filter0_f_9_1592" x="0" y="0" width="140" height="140" filterUnits="userSpaceOnUse" color-interpolation-filters="sRGB">
<feFlood flood-opacity="0" result="BackgroundImageFix"/>
<feBlend mode="normal" in="SourceGraphic" in2="BackgroundImageFix" result="shape"/>
<feGaussianBlur stdDeviation="10" result="effect1_foregroundBlur_9_1592"/>
</filter>
<linearGradient id="paint0_linear_9_1592" x1="111.491" y1="46.7296" x2="19.667" y2="77.8616" gradientUnits="userSpaceOnUse">
<stop stop-color="#80BDFF"/>
<stop offset="1" stop-color="#1B86F8"/>
</linearGradient>
</defs>
</svg>
