<svg width="140" height="140" viewBox="0 0 140 140" fill="none" xmlns="http://www.w3.org/2000/svg">
<g filter="url(#filter0_f_9_1597)">
<circle cx="70" cy="70" r="50" fill="#1B86F8"/>
</g>
<rect x="19.667" y="20" width="100" height="100" rx="50" fill="#EDF6FF"/>
<rect x="19.667" y="20" width="100" height="100" rx="50" fill="url(#paint0_linear_9_1597)"/>
<rect x="13.667" y="14" width="112" height="112" rx="56" stroke="#EDF6FF" stroke-opacity="0.1" stroke-width="12"/>
<path d="M59.187 84.9C56.8403 84.9 54.7603 84.2733 52.947 83.02C51.1337 81.74 49.707 79.98 48.667 77.74C47.6537 75.4733 47.147 72.8867 47.147 69.98C47.147 67.0733 47.6537 64.5267 48.667 62.34C49.6803 60.1267 51.0937 58.4067 52.907 57.18C54.747 55.9267 56.8403 55.3 59.187 55.3C61.5603 55.3 63.6537 55.9267 65.467 57.18C67.2803 58.4067 68.6937 60.1267 69.707 62.34C70.747 64.5267 71.267 67.0733 71.267 69.98C71.267 72.9133 70.747 75.5 69.707 77.74C68.6937 79.98 67.2803 81.74 65.467 83.02C63.6537 84.2733 61.5603 84.9 59.187 84.9ZM59.187 80.54C60.6537 80.54 61.867 80.0733 62.827 79.14C63.787 78.2067 64.507 76.94 64.987 75.34C65.4937 73.74 65.747 71.94 65.747 69.94C65.747 67.94 65.507 66.1667 65.027 64.62C64.547 63.0733 63.8137 61.86 62.827 60.98C61.867 60.1 60.6537 59.66 59.187 59.66C57.747 59.66 56.5337 60.1133 55.547 61.02C54.587 61.9 53.867 63.1133 53.387 64.66C52.907 66.2067 52.667 67.9667 52.667 69.94C52.667 71.9667 52.907 73.78 53.387 75.38C53.867 76.98 54.6003 78.2467 55.587 79.18C56.5737 80.0867 57.7737 80.54 59.187 80.54ZM77.1004 84.5C77.5004 79.94 78.6071 75.5133 80.4204 71.22C82.2338 66.9267 84.6738 62.82 87.7404 58.9L87.8204 59.82H71.9004V55.7H92.5404V59.42C90.6204 62.1933 88.9671 64.94 87.5804 67.66C86.2204 70.3533 85.1271 73.0867 84.3004 75.86C83.5004 78.6333 82.9938 81.5133 82.7804 84.5H77.1004Z" fill="#002556"/>
<defs>
<filter id="filter0_f_9_1597" x="0" y="0" width="140" height="140" filterUnits="userSpaceOnUse" color-interpolation-filters="sRGB">
<feFlood flood-opacity="0" result="BackgroundImageFix"/>
<feBlend mode="normal" in="SourceGraphic" in2="BackgroundImageFix" result="shape"/>
<feGaussianBlur stdDeviation="10" result="effect1_foregroundBlur_9_1597"/>
</filter>
<linearGradient id="paint0_linear_9_1597" x1="111.491" y1="46.7296" x2="19.667" y2="77.8616" gradientUnits="userSpaceOnUse">
<stop stop-color="#80BDFF"/>
<stop offset="1" stop-color="#1B86F8"/>
</linearGradient>
</defs>
</svg>
