<svg width="140" height="140" viewBox="0 0 140 140" fill="none" xmlns="http://www.w3.org/2000/svg">
<g filter="url(#filter0_f_9_1587)">
<circle cx="70" cy="70" r="50" fill="#1B86F8"/>
</g>
<rect x="19.667" y="20" width="100" height="100" rx="50" fill="#EDF6FF"/>
<rect x="19.667" y="20" width="100" height="100" rx="50" fill="url(#paint0_linear_9_1587)"/>
<rect x="13.667" y="14" width="112" height="112" rx="56" stroke="#EDF6FF" stroke-opacity="0.1" stroke-width="12"/>
<path d="M57.687 84.9C55.3403 84.9 53.2603 84.2733 51.447 83.02C49.6337 81.74 48.207 79.98 47.167 77.74C46.1537 75.4733 45.647 72.8867 45.647 69.98C45.647 67.0733 46.1537 64.5267 47.167 62.34C48.1803 60.1267 49.5937 58.4067 51.407 57.18C53.247 55.9267 55.3403 55.3 57.687 55.3C60.0603 55.3 62.1537 55.9267 63.967 57.18C65.7803 58.4067 67.1937 60.1267 68.207 62.34C69.247 64.5267 69.767 67.0733 69.767 69.98C69.767 72.9133 69.247 75.5 68.207 77.74C67.1937 79.98 65.7803 81.74 63.967 83.02C62.1537 84.2733 60.0603 84.9 57.687 84.9ZM57.687 80.54C59.1537 80.54 60.367 80.0733 61.327 79.14C62.287 78.2067 63.007 76.94 63.487 75.34C63.9937 73.74 64.247 71.94 64.247 69.94C64.247 67.94 64.007 66.1667 63.527 64.62C63.047 63.0733 62.3137 61.86 61.327 60.98C60.367 60.1 59.1537 59.66 57.687 59.66C56.247 59.66 55.0337 60.1133 54.047 61.02C53.087 61.9 52.367 63.1133 51.887 64.66C51.407 66.2067 51.167 67.9667 51.167 69.94C51.167 71.9667 51.407 73.78 51.887 75.38C52.367 76.98 53.1003 78.2467 54.087 79.18C55.0737 80.0867 56.2737 80.54 57.687 80.54ZM82.8792 84.9C79.9725 84.9 77.5992 84.14 75.7592 82.62C73.9192 81.1 72.7858 79.0067 72.3592 76.34H77.6392C77.8792 77.7533 78.4658 78.8467 79.3992 79.62C80.3592 80.3933 81.4792 80.78 82.7592 80.78C84.1725 80.78 85.3192 80.3133 86.1992 79.38C87.1058 78.4467 87.5592 77.0067 87.5592 75.06C87.5592 73.1667 87.1192 71.74 86.2392 70.78C85.3858 69.7933 84.2392 69.3 82.7992 69.3C81.8658 69.3 81.0258 69.5 80.2792 69.9C79.5325 70.3 78.9725 70.86 78.5992 71.58H73.8792L75.2792 55.7H91.3992V59.82H77.3992L79.9592 59.1L79.1592 68.98L77.5592 68.7C78.1992 67.7133 79.0258 66.9267 80.0392 66.34C81.0525 65.7533 82.3325 65.46 83.8792 65.46C85.7192 65.46 87.3192 65.86 88.6792 66.66C90.0658 67.46 91.1458 68.58 91.9192 70.02C92.7192 71.4333 93.1192 73.14 93.1192 75.14C93.1192 77.1933 92.6925 78.9533 91.8392 80.42C90.9858 81.86 89.7992 82.9667 88.2792 83.74C86.7592 84.5133 84.9592 84.9 82.8792 84.9Z" fill="#002556"/>
<defs>
<filter id="filter0_f_9_1587" x="0" y="0" width="140" height="140" filterUnits="userSpaceOnUse" color-interpolation-filters="sRGB">
<feFlood flood-opacity="0" result="BackgroundImageFix"/>
<feBlend mode="normal" in="SourceGraphic" in2="BackgroundImageFix" result="shape"/>
<feGaussianBlur stdDeviation="10" result="effect1_foregroundBlur_9_1587"/>
</filter>
<linearGradient id="paint0_linear_9_1587" x1="111.491" y1="46.7296" x2="19.667" y2="77.8616" gradientUnits="userSpaceOnUse">
<stop stop-color="#80BDFF"/>
<stop offset="1" stop-color="#1B86F8"/>
</linearGradient>
</defs>
</svg>
