<svg width="140" height="140" viewBox="0 0 140 140" fill="none" xmlns="http://www.w3.org/2000/svg">
<g filter="url(#filter0_f_9_1582)">
<circle cx="70" cy="70" r="50" fill="#1B86F8"/>
</g>
<rect x="19.667" y="20" width="100" height="100" rx="50" fill="#EDF6FF"/>
<rect x="19.667" y="20" width="100" height="100" rx="50" fill="url(#paint0_linear_9_1582)"/>
<rect x="13.667" y="14" width="112" height="112" rx="56" stroke="#EDF6FF" stroke-opacity="0.1" stroke-width="12"/>
<path d="M57.187 84.9C54.8403 84.9 52.7603 84.2733 50.947 83.02C49.1337 81.74 47.707 79.98 46.667 77.74C45.6537 75.4733 45.147 72.8867 45.147 69.98C45.147 67.0733 45.6537 64.5267 46.667 62.34C47.6803 60.1267 49.0937 58.4067 50.907 57.18C52.747 55.9267 54.8403 55.3 57.187 55.3C59.5603 55.3 61.6537 55.9267 63.467 57.18C65.2803 58.4067 66.6937 60.1267 67.707 62.34C68.747 64.5267 69.267 67.0733 69.267 69.98C69.267 72.9133 68.747 75.5 67.707 77.74C66.6937 79.98 65.2803 81.74 63.467 83.02C61.6537 84.2733 59.5603 84.9 57.187 84.9ZM57.187 80.54C58.6537 80.54 59.867 80.0733 60.827 79.14C61.787 78.2067 62.507 76.94 62.987 75.34C63.4937 73.74 63.747 71.94 63.747 69.94C63.747 67.94 63.507 66.1667 63.027 64.62C62.547 63.0733 61.8137 61.86 60.827 60.98C59.867 60.1 58.6537 59.66 57.187 59.66C55.747 59.66 54.5337 60.1133 53.547 61.02C52.587 61.9 51.867 63.1133 51.387 64.66C50.907 66.2067 50.667 67.9667 50.667 69.94C50.667 71.9667 50.907 73.78 51.387 75.38C51.867 76.98 52.6003 78.2467 53.587 79.18C54.5737 80.0867 55.7737 80.54 57.187 80.54ZM85.7029 84.5V76.9L85.9429 76.1V59.66L87.9429 60.54L76.1029 76.42L73.8229 74.54H94.1429V78.66H71.5829V74.7L85.8629 55.7H91.0229V84.5H85.7029Z" fill="#002556"/>
<defs>
<filter id="filter0_f_9_1582" x="0" y="0" width="140" height="140" filterUnits="userSpaceOnUse" color-interpolation-filters="sRGB">
<feFlood flood-opacity="0" result="BackgroundImageFix"/>
<feBlend mode="normal" in="SourceGraphic" in2="BackgroundImageFix" result="shape"/>
<feGaussianBlur stdDeviation="10" result="effect1_foregroundBlur_9_1582"/>
</filter>
<linearGradient id="paint0_linear_9_1582" x1="111.491" y1="46.7296" x2="19.667" y2="77.8616" gradientUnits="userSpaceOnUse">
<stop stop-color="#80BDFF"/>
<stop offset="1" stop-color="#1B86F8"/>
</linearGradient>
</defs>
</svg>
