<svg width="124" height="124" viewBox="0 0 124 124" fill="none" xmlns="http://www.w3.org/2000/svg">
<rect x="12" y="12" width="100" height="100" rx="50" fill="#EDF6FF"/>
<rect x="12" y="12" width="100" height="100" rx="50" fill="url(#paint0_linear_1_997)"/>
<rect x="6" y="6" width="112" height="112" rx="56" stroke="#EDF6FF" stroke-opacity="0.1" stroke-width="12"/>
<path d="M54.02 76.9C51.6733 76.9 49.5933 76.2733 47.78 75.02C45.9667 73.74 44.54 71.98 43.5 69.74C42.4867 67.4733 41.98 64.8867 41.98 61.98C41.98 59.0733 42.4867 56.5267 43.5 54.34C44.5133 52.1267 45.9267 50.4067 47.74 49.18C49.58 47.9267 51.6733 47.3 54.02 47.3C56.3933 47.3 58.4867 47.9267 60.3 49.18C62.1133 50.4067 63.5267 52.1267 64.54 54.34C65.58 56.5267 66.1 59.0733 66.1 61.98C66.1 64.9133 65.58 67.5 64.54 69.74C63.5267 71.98 62.1133 73.74 60.3 75.02C58.4867 76.2733 56.3933 76.9 54.02 76.9ZM54.02 72.54C55.4867 72.54 56.7 72.0733 57.66 71.14C58.62 70.2067 59.34 68.94 59.82 67.34C60.3267 65.74 60.58 63.94 60.58 61.94C60.58 59.94 60.34 58.1667 59.86 56.62C59.38 55.0733 58.6467 53.86 57.66 52.98C56.7 52.1 55.4867 51.66 54.02 51.66C52.58 51.66 51.3667 52.1133 50.38 53.02C49.42 53.9 48.7 55.1133 48.22 56.66C47.74 58.2067 47.5 59.9667 47.5 61.94C47.5 63.9667 47.74 65.78 48.22 67.38C48.7 68.98 49.4333 70.2467 50.42 71.18C51.4067 72.0867 52.6067 72.54 54.02 72.54ZM75.3731 76.5V52.3L76.1331 52.78C75.7598 53.58 75.1731 54.34 74.3731 55.06C73.5731 55.7533 72.6398 56.3533 71.5731 56.86C70.5065 57.3667 69.3598 57.7267 68.1331 57.94V52.94C69.1998 52.78 70.2798 52.4333 71.3731 51.9C72.4665 51.3667 73.4531 50.74 74.3331 50.02C75.2131 49.2733 75.8398 48.5 76.2131 47.7H80.4531V76.5H75.3731Z" fill="#002556"/>
<defs>
<linearGradient id="paint0_linear_1_997" x1="103.824" y1="38.7296" x2="12" y2="69.8616" gradientUnits="userSpaceOnUse">
<stop stop-color="#80BDFF"/>
<stop offset="1" stop-color="#1B86F8"/>
</linearGradient>
</defs>
</svg>
