<svg width="140" height="140" viewBox="0 0 140 140" fill="none" xmlns="http://www.w3.org/2000/svg">
<g filter="url(#filter0_f_9_1577)">
<circle cx="70" cy="70" r="50" fill="#1B86F8"/>
</g>
<rect x="19.667" y="20" width="100" height="100" rx="50" fill="#EDF6FF"/>
<rect x="19.667" y="20" width="100" height="100" rx="50" fill="url(#paint0_linear_9_1577)"/>
<rect x="13.667" y="14" width="112" height="112" rx="56" stroke="#EDF6FF" stroke-opacity="0.1" stroke-width="12"/>
<path d="M58.187 84.9C55.8403 84.9 53.7603 84.2733 51.947 83.02C50.1337 81.74 48.707 79.98 47.667 77.74C46.6537 75.4733 46.147 72.8867 46.147 69.98C46.147 67.0733 46.6537 64.5267 47.667 62.34C48.6803 60.1267 50.0937 58.4067 51.907 57.18C53.747 55.9267 55.8403 55.3 58.187 55.3C60.5603 55.3 62.6537 55.9267 64.467 57.18C66.2803 58.4067 67.6937 60.1267 68.707 62.34C69.747 64.5267 70.267 67.0733 70.267 69.98C70.267 72.9133 69.747 75.5 68.707 77.74C67.6937 79.98 66.2803 81.74 64.467 83.02C62.6537 84.2733 60.5603 84.9 58.187 84.9ZM58.187 80.54C59.6537 80.54 60.867 80.0733 61.827 79.14C62.787 78.2067 63.507 76.94 63.987 75.34C64.4937 73.74 64.747 71.94 64.747 69.94C64.747 67.94 64.507 66.1667 64.027 64.62C63.547 63.0733 62.8137 61.86 61.827 60.98C60.867 60.1 59.6537 59.66 58.187 59.66C56.747 59.66 55.5337 60.1133 54.547 61.02C53.587 61.9 52.867 63.1133 52.387 64.66C51.907 66.2067 51.667 67.9667 51.667 69.94C51.667 71.9667 51.907 73.78 52.387 75.38C52.867 76.98 53.6003 78.2467 54.587 79.18C55.5737 80.0867 56.7737 80.54 58.187 80.54ZM83.3439 84.9C81.3705 84.9 79.5972 84.54 78.0239 83.82C76.4772 83.1 75.2105 82.0333 74.2239 80.62C73.2639 79.2067 72.7039 77.5 72.5439 75.5H77.7439C77.9839 77.26 78.5705 78.58 79.5039 79.46C80.4372 80.34 81.6772 80.78 83.2239 80.78C84.6105 80.78 85.7305 80.3933 86.5839 79.62C87.4639 78.8467 87.9039 77.74 87.9039 76.3C87.9039 74.86 87.4772 73.7 86.6239 72.82C85.7972 71.94 84.4905 71.5 82.7039 71.5H79.7839V67.46H82.5839C84.1572 67.46 85.3172 67.0867 86.0639 66.34C86.8372 65.5667 87.2239 64.58 87.2239 63.38C87.2239 62.18 86.8772 61.22 86.1839 60.5C85.5172 59.78 84.4905 59.42 83.1039 59.42C81.8239 59.42 80.7172 59.8067 79.7839 60.58C78.8772 61.3267 78.3305 62.4467 78.1439 63.94H72.8639C73.0772 62.1533 73.6239 60.62 74.5039 59.34C75.4105 58.06 76.6105 57.0733 78.1039 56.38C79.5972 55.66 81.3172 55.3 83.2639 55.3C85.1839 55.3 86.8505 55.62 88.2639 56.26C89.6772 56.8733 90.7705 57.7533 91.5439 58.9C92.3439 60.02 92.7439 61.3667 92.7439 62.94C92.7439 64.3 92.4372 65.4867 91.8239 66.5C91.2105 67.5133 90.4105 68.3133 89.4239 68.9C88.4639 69.46 87.4505 69.74 86.3839 69.74L86.2639 68.9C87.7572 68.9 89.0372 69.2467 90.1039 69.94C91.1705 70.6067 91.9839 71.5133 92.5439 72.66C93.1305 73.8067 93.4239 75.1 93.4239 76.54C93.4239 78.22 92.9839 79.7 92.1039 80.98C91.2505 82.2333 90.0639 83.2067 88.5439 83.9C87.0239 84.5667 85.2905 84.9 83.3439 84.9Z" fill="#002556"/>
<defs>
<filter id="filter0_f_9_1577" x="0" y="0" width="140" height="140" filterUnits="userSpaceOnUse" color-interpolation-filters="sRGB">
<feFlood flood-opacity="0" result="BackgroundImageFix"/>
<feBlend mode="normal" in="SourceGraphic" in2="BackgroundImageFix" result="shape"/>
<feGaussianBlur stdDeviation="10" result="effect1_foregroundBlur_9_1577"/>
</filter>
<linearGradient id="paint0_linear_9_1577" x1="111.491" y1="46.7296" x2="19.667" y2="77.8616" gradientUnits="userSpaceOnUse">
<stop stop-color="#80BDFF"/>
<stop offset="1" stop-color="#1B86F8"/>
</linearGradient>
</defs>
</svg>
