<svg width="140" height="140" viewBox="0 0 140 140" fill="none" xmlns="http://www.w3.org/2000/svg">
<g filter="url(#filter0_f_9_1572)">
<circle cx="70" cy="70" r="50" fill="#1B86F8"/>
</g>
<rect x="19.667" y="20" width="100" height="100" rx="50" fill="#EDF6FF"/>
<rect x="19.667" y="20" width="100" height="100" rx="50" fill="url(#paint0_linear_9_1572)"/>
<rect x="13.667" y="14" width="112" height="112" rx="56" stroke="#EDF6FF" stroke-opacity="0.1" stroke-width="12"/>
<path d="M58.187 84.9C55.8403 84.9 53.7603 84.2733 51.947 83.02C50.1337 81.74 48.707 79.98 47.667 77.74C46.6537 75.4733 46.147 72.8867 46.147 69.98C46.147 67.0733 46.6537 64.5267 47.667 62.34C48.6803 60.1267 50.0937 58.4067 51.907 57.18C53.747 55.9267 55.8403 55.3 58.187 55.3C60.5603 55.3 62.6537 55.9267 64.467 57.18C66.2803 58.4067 67.6937 60.1267 68.707 62.34C69.747 64.5267 70.267 67.0733 70.267 69.98C70.267 72.9133 69.747 75.5 68.707 77.74C67.6937 79.98 66.2803 81.74 64.467 83.02C62.6537 84.2733 60.5603 84.9 58.187 84.9ZM58.187 80.54C59.6537 80.54 60.867 80.0733 61.827 79.14C62.787 78.2067 63.507 76.94 63.987 75.34C64.4937 73.74 64.747 71.94 64.747 69.94C64.747 67.94 64.507 66.1667 64.027 64.62C63.547 63.0733 62.8137 61.86 61.827 60.98C60.867 60.1 59.6537 59.66 58.187 59.66C56.747 59.66 55.5337 60.1133 54.547 61.02C53.587 61.9 52.867 63.1133 52.387 64.66C51.907 66.2067 51.667 67.9667 51.667 69.94C51.667 71.9667 51.907 73.78 52.387 75.38C52.867 76.98 53.6003 78.2467 54.587 79.18C55.5737 80.0867 56.7737 80.54 58.187 80.54ZM72.6639 84.5V80.38C75.3839 78.14 77.6505 76.2067 79.4639 74.58C81.3039 72.9267 82.7705 71.4733 83.8639 70.22C84.9572 68.9667 85.7305 67.82 86.1839 66.78C86.6639 65.7133 86.9039 64.6733 86.9039 63.66C86.9039 62.3267 86.5305 61.2867 85.7839 60.54C85.0372 59.7933 83.9972 59.42 82.6639 59.42C81.2772 59.42 80.1439 59.8333 79.2639 60.66C78.3839 61.46 77.8505 62.5933 77.6639 64.06H72.3839C72.6772 61.3667 73.7572 59.2333 75.6239 57.66C77.4905 56.0867 79.9172 55.3 82.9039 55.3C85.8639 55.3 88.1839 56.0733 89.8639 57.62C91.5705 59.14 92.4239 61.26 92.4239 63.98C92.4239 65.34 92.1839 66.66 91.7039 67.94C91.2505 69.1933 90.4772 70.5133 89.3839 71.9C88.3172 73.26 86.8772 74.7667 85.0639 76.42C83.2772 78.0467 81.0372 79.9 78.3439 81.98L77.1039 80.38H92.9439V84.5H72.6639Z" fill="#002556"/>
<defs>
<filter id="filter0_f_9_1572" x="0" y="0" width="140" height="140" filterUnits="userSpaceOnUse" color-interpolation-filters="sRGB">
<feFlood flood-opacity="0" result="BackgroundImageFix"/>
<feBlend mode="normal" in="SourceGraphic" in2="BackgroundImageFix" result="shape"/>
<feGaussianBlur stdDeviation="10" result="effect1_foregroundBlur_9_1572"/>
</filter>
<linearGradient id="paint0_linear_9_1572" x1="111.491" y1="46.7296" x2="19.667" y2="77.8616" gradientUnits="userSpaceOnUse">
<stop stop-color="#80BDFF"/>
<stop offset="1" stop-color="#1B86F8"/>
</linearGradient>
</defs>
</svg>
